<svg width="246" height="246" viewBox="0 0 246 246" fill="none" xmlns="http://www.w3.org/2000/svg">
<g id="confusion 1">
<g id="_x31_15">
<g id="Group">
<g id="Group_2">
<path id="Vector" d="M135.703 78.8167C135.703 78.8167 128.746 68.5967 115.602 70.8323C102.457 73.068 97.886 81.7791 95.2817 87.4154C65.0801 152.777 115.858 164.358 118.316 161.092C120.774 157.827 136.154 154.745 136.154 154.745C136.154 154.745 167.424 158.092 165.476 118.341C165.058 109.811 156.47 71.7024 135.703 78.8167Z" fill="#34324C"/>
</g>
</g>
<g id="Group_3">
<g id="Group_4">
<g id="Group_5">
<g id="Group_6">
<path id="Vector_2" d="M154.093 148.199L154.293 148.199C160.535 148.198 166.444 151.02 170.367 155.875L178.836 166.353L203.69 150.066L216.602 168.946L181.942 199.357C176.28 203.901 168.179 203.744 162.697 198.986L145.376 183.953L154.093 148.199Z" fill="#7B94F2"/>
</g>
</g>
<g id="Group_7">
<g id="Group_8">
<path id="Vector_3" d="M203.69 150.067L206.879 139.598C207.344 138.071 208.792 137.061 210.386 137.152C212.36 137.264 213.839 139.005 213.63 140.972L213.37 143.422L214.447 142.785C220.373 139.276 228.031 141.542 231.095 147.709C233.871 153.298 231.836 160.082 226.442 163.221L216.602 168.946" fill="#FDC7B4"/>
</g>
</g>
</g>
<g id="Group_9">
<g id="Group_10">
<g id="Group_11">
<path id="Vector_4" d="M91.9067 148.199L91.7066 148.199C85.4643 148.198 79.5561 151.02 75.6324 155.875L67.1632 166.353L42.3099 150.066L29.3979 168.946L64.0582 199.357C69.7198 203.901 77.8207 203.744 83.3029 198.986L100.623 183.953L91.9067 148.199Z" fill="#7B94F2"/>
</g>
</g>
<g id="Group_12">
<g id="Group_13">
<path id="Vector_5" d="M42.3101 150.067L39.1215 139.598C38.6565 138.071 37.2075 137.061 35.6141 137.152C33.6399 137.264 32.1612 139.005 32.3698 140.972L32.6299 143.422L31.5529 142.785C25.627 139.276 17.9687 141.542 14.9052 147.709C12.1293 153.298 14.1641 160.082 19.5579 163.221L29.3981 168.946" fill="#FDC7B4"/>
</g>
</g>
</g>
</g>
<g id="Group_14">
<g id="Group_15">
<g id="Group_16">
<g id="Group_17">
<g id="Group_18">
<g id="Group_19">
<path id="Vector_6" d="M162.594 224.028H83.4058L88.5952 151.467C88.7259 149.639 90.2467 148.223 92.079 148.223H154.675C156.521 148.223 158.048 149.66 158.161 151.503L162.594 224.028Z" fill="#7B94F2"/>
</g>
</g>
</g>
<g id="Group_20">
<g id="Group_21">
<path id="Vector_7" d="M120.382 125.096C120.377 125.201 120.35 125.301 120.35 125.408C120.35 129.428 123.609 132.686 127.629 132.686C131.649 132.686 134.907 129.428 134.907 125.408C134.907 125.301 134.88 125.201 134.876 125.096H120.382Z" fill="white"/>
</g>
</g>
</g>
</g>
<g id="Group_22">
<g id="Group_23">
<g id="Group_24">
<path id="Vector_8" d="M136.575 129.746L136.727 148.224H115.324L115.171 129.746H136.575Z" fill="#FDC7B4"/>
</g>
</g>
<g id="Group_25">
<g id="Group_26">
<path id="Vector_9" d="M136.575 148.242L126.026 166.719L115.171 148.242H136.575Z" fill="#FDC7B4"/>
</g>
</g>
<g id="Group_27">
<g id="Group_28">
<path id="Vector_10" d="M136.575 129.746V140.874C128.996 141.23 121.898 139.417 115.171 135.79V129.746H136.575Z" fill="#EFB5A3"/>
</g>
</g>
<g id="Group_29">
<g id="Group_30">
<path id="Vector_11" d="M146.756 117.137C149.641 117.137 151.98 114.408 151.98 111.042C151.98 107.675 149.641 104.946 146.756 104.946C143.871 104.946 141.532 107.675 141.532 111.042C141.532 114.408 143.871 117.137 146.756 117.137Z" fill="#FDC7B4"/>
</g>
</g>
<g id="Group_31">
<g id="Group_32">
<path id="Vector_12" d="M148.846 113.791C148.724 113.791 148.604 113.741 148.516 113.643C148.357 113.461 148.372 113.183 148.554 113.021C149.181 112.467 149.526 111.764 149.526 111.043C149.526 110.32 149.181 109.618 148.556 109.065C148.374 108.904 148.357 108.627 148.516 108.445C148.678 108.263 148.958 108.246 149.136 108.406C149.955 109.129 150.405 110.064 150.405 111.043C150.405 112.02 149.955 112.956 149.138 113.681C149.054 113.755 148.949 113.791 148.846 113.791Z" fill="#EFB5A3"/>
</g>
</g>
<g id="Group_33">
<g id="Group_34">
<path id="Vector_13" d="M105.309 117.137C108.194 117.137 110.533 114.408 110.533 111.042C110.533 107.675 108.194 104.946 105.309 104.946C102.423 104.946 100.084 107.675 100.084 111.042C100.084 114.408 102.423 117.137 105.309 117.137Z" fill="#FDC7B4"/>
</g>
</g>
<g id="Group_35">
<g id="Group_36">
<path id="Vector_14" d="M103.219 113.791C103.341 113.791 103.461 113.741 103.549 113.643C103.708 113.461 103.693 113.183 103.511 113.021C102.884 112.467 102.539 111.764 102.539 111.043C102.539 110.32 102.884 109.618 103.509 109.065C103.691 108.904 103.708 108.627 103.549 108.445C103.387 108.263 103.107 108.246 102.929 108.406C102.11 109.129 101.66 110.064 101.66 111.043C101.66 112.02 102.11 112.956 102.927 113.681C103.011 113.755 103.116 113.791 103.219 113.791Z" fill="#EFB5A3"/>
</g>
</g>
<g id="Group_37">
<g id="Group_38">
<path id="Vector_15" d="M147.458 104.398V115.618C147.458 127.545 137.784 137.196 125.88 137.196C113.953 137.196 104.301 127.545 104.301 115.618V104.398C104.301 92.4713 113.953 82.8198 125.88 82.8198C131.843 82.8198 137.232 85.2269 141.141 89.1362C145.051 93.0456 147.458 98.4345 147.458 104.398Z" fill="#FDC7B4"/>
</g>
</g>
<g id="Group_39">
<g id="Group_40">
<path id="Vector_16" d="M119.31 109.593C119.31 111.091 118.488 112.296 117.465 112.296C116.442 112.296 115.602 111.091 115.602 109.593C115.602 108.095 116.442 106.871 117.465 106.871C118.488 106.871 119.31 108.095 119.31 109.593Z" fill="#333333"/>
</g>
</g>
<g id="Group_41">
<g id="Group_42">
<path id="Vector_17" d="M136.154 109.593C136.154 111.091 135.332 112.296 134.309 112.296C133.286 112.296 132.445 111.091 132.445 109.593C132.445 108.095 133.286 106.871 134.309 106.871C135.332 106.871 136.154 108.095 136.154 109.593Z" fill="#333333"/>
</g>
</g>
<g id="Group_43">
<g id="Group_44">
<path id="Vector_18" d="M146.548 98.1371C136.633 95.2755 135.103 88.8529 134.903 86.8122C143.222 92.2682 114.104 110.295 104.291 104.97L99.6104 100.51L105.932 87.2896L111.389 81.2782L128.736 80.2135L134.947 84.5168C134.947 84.5168 139.539 81.2121 139.894 81.2121C140.249 81.2121 147.813 87.3784 148.412 87.3784C148.988 87.3784 157.861 101.42 146.548 98.1371Z" fill="#34324C"/>
</g>
</g>
</g>
<g id="Group_45">
<g id="Group_46">
<g id="Group_47">
<path id="Vector_19" d="M156.529 167.14L158.829 166.857L162.583 197.409L160.282 197.691L156.529 167.14Z" fill="#6675E9"/>
</g>
</g>
</g>
<g id="Group_48">
<g id="Group_49">
<g id="Group_50">
<path id="Vector_20" d="M84.5107 197.333L88.2336 166.782L90.5338 167.062L86.811 197.614L84.5107 197.333Z" fill="#6675E9"/>
</g>
</g>
</g>
</g>
<g id="Group_51">
<g id="Group_52">
<path id="Vector_21" d="M120.597 128.065C120.36 128.065 120.123 128.002 119.91 127.865C119.312 127.485 119.136 126.694 119.516 126.097C120.844 124.008 123.103 122.553 125.559 122.206C128.008 121.869 130.587 122.64 132.445 124.285C132.972 124.752 133.022 125.563 132.552 126.093C132.085 126.617 131.277 126.667 130.744 126.2C129.442 125.049 127.624 124.512 125.916 124.742C124.194 124.986 122.609 126.007 121.678 127.471C121.435 127.855 121.021 128.065 120.597 128.065Z" fill="#EFB5A3"/>
</g>
</g>
<g id="Group_53">
<g id="Group_54">
<g id="Group_55">
<path id="Vector_22" d="M184.222 93.2583C183.869 92.5007 183.844 91.7589 184.145 91.0311C184.989 88.9857 186.093 87.3414 187.457 86.0953C188.822 84.8501 190.204 83.9151 191.605 83.2963C193.004 82.6767 194.793 82.047 196.976 81.4031C199.266 80.7523 201.025 80.0954 202.257 79.434C203.488 78.7718 204.364 77.8044 204.89 76.5308C206.934 71.5762 204.707 67.7567 198.207 65.0743C196.615 64.4175 194.979 63.9699 193.298 63.7265C191.613 63.4842 190.033 63.483 188.551 63.7232C187.855 63.8618 187.211 63.809 186.621 63.5657C185.893 63.2653 185.37 62.729 185.05 61.9579C184.728 61.1888 184.719 60.4408 185.019 59.713C185.451 58.6673 186.374 58.0375 187.793 57.8251C190.144 57.4125 192.377 57.3502 194.494 57.6362C196.61 57.9243 198.825 58.5471 201.144 59.5043C205.781 61.4176 209.019 64.1099 210.859 67.5811C212.696 71.0535 212.801 74.7681 211.169 78.7229C210.438 80.4944 209.475 81.9204 208.286 82.9986C207.097 84.0769 205.853 84.8953 204.562 85.4514C203.267 86.0087 201.626 86.5678 199.639 87.1306C197.045 87.8713 195.003 88.6634 193.511 89.5089C192.015 90.3578 190.895 91.6897 190.145 93.5072C189.845 94.235 189.29 94.7378 188.484 95.0172C187.676 95.2958 186.866 95.2673 186.046 94.929C185.182 94.5725 184.575 94.0159 184.222 93.2583ZM178.227 105.467C177.76 104.345 177.761 103.214 178.231 102.077C178.68 100.987 179.467 100.208 180.59 99.7389C181.713 99.2721 182.822 99.2649 183.912 99.7145C185.048 100.183 185.85 100.979 186.319 102.103C186.785 103.228 186.793 104.335 186.343 105.424C185.874 106.562 185.078 107.364 183.955 107.831C182.83 108.297 181.7 108.296 180.564 107.827C179.475 107.377 178.693 106.59 178.227 105.467Z" fill="#FF7581"/>
</g>
</g>
</g>
<g id="Group_56">
<g id="Group_57">
<g id="Group_58">
<path id="Vector_23" d="M74.063 82.6216C73.2432 82.9599 72.4326 82.9885 71.6249 82.7099C70.8194 82.4304 70.2644 81.9276 69.964 81.1998C69.214 79.3823 68.0941 78.0504 66.5984 77.2016C65.1064 76.356 63.0638 75.564 60.4697 74.8233C58.4825 74.2604 56.842 73.7014 55.5473 73.144C54.2556 72.5879 53.0123 71.7695 51.8233 70.6913C50.6343 69.6131 49.6713 68.187 48.9403 66.4156C47.3083 62.4607 47.4128 58.7462 49.2499 55.2738C51.0898 51.8026 54.3281 49.1103 58.9648 47.1969C61.2842 46.2398 63.4992 45.617 65.615 45.3288C67.7316 45.0428 69.965 45.1051 72.3161 45.5178C73.7351 45.7301 74.6584 46.3599 75.0899 47.4057C75.3902 48.1335 75.3807 48.8815 75.0592 49.6505C74.7386 50.4216 74.2159 50.9579 73.4881 51.2583C72.8983 51.5017 72.2544 51.5545 71.5583 51.4158C70.0763 51.1756 68.4957 51.1768 66.8114 51.4191C65.13 51.6626 63.4938 52.1102 61.9022 52.767C55.4021 55.4493 53.1747 59.2688 55.2193 64.2234C55.7449 65.4971 56.6213 66.4644 57.8516 67.1267C59.084 67.788 60.8432 68.445 63.1334 69.0957C65.3156 69.7396 67.1052 70.3693 68.5039 70.989C69.9047 71.6078 71.2867 72.5427 72.6523 73.7879C74.0158 75.034 75.1202 76.6783 75.9643 78.7237C76.2646 79.4515 76.2403 80.1934 75.8872 80.951C75.5341 81.7086 74.9268 82.2652 74.063 82.6216ZM79.5447 95.5197C78.409 95.9884 77.2788 95.9897 76.154 95.5238C75.0313 95.057 74.2352 94.2548 73.7657 93.1171C73.3161 92.0274 73.3242 90.9202 73.7901 89.7954C74.259 88.6719 75.0613 87.8758 76.1969 87.4071C77.2865 86.9575 78.3958 86.9648 79.5185 87.4315C80.6421 87.9004 81.4287 88.6797 81.8783 89.7693C82.3479 90.907 82.3492 92.0372 81.8824 93.1599C81.4157 94.2826 80.6343 95.0701 79.5447 95.5197Z" fill="#FDDF8C"/>
</g>
</g>
</g>
<g id="Group_59">
<g id="Group_60">
<g id="Group_61">
<path id="Vector_24" d="M128.51 48.5127C128.249 47.951 128.231 47.401 128.453 46.8614C129.079 45.3449 129.898 44.1259 130.909 43.202C131.921 42.2788 132.946 41.5856 133.984 41.1268C135.021 40.6674 136.348 40.2006 137.966 39.7232C139.664 39.2407 140.968 38.7537 141.882 38.2633C142.794 37.7723 143.444 37.0551 143.834 36.1108C145.349 32.4375 143.698 29.6057 138.879 27.617C137.699 27.13 136.486 26.7982 135.239 26.6176C133.99 26.438 132.819 26.4371 131.72 26.6152C131.204 26.718 130.726 26.6789 130.289 26.4984C129.749 26.2757 129.362 25.8781 129.124 25.3064C128.886 24.7362 128.879 24.1817 129.101 23.6421C129.421 22.8668 130.106 22.3998 131.158 22.2424C132.901 21.9364 134.557 21.8902 136.126 22.1023C137.695 22.3159 139.337 22.7777 141.057 23.4873C144.494 24.9059 146.895 26.9019 148.259 29.4755C149.621 32.05 149.699 34.8039 148.489 37.7361C147.947 39.0494 147.233 40.1067 146.351 40.9061C145.47 41.7055 144.548 42.3123 143.59 42.7246C142.631 43.1378 141.414 43.5523 139.941 43.9696C138.018 44.5188 136.503 45.106 135.397 45.7329C134.288 46.3622 133.458 47.3497 132.902 48.6972C132.679 49.2368 132.268 49.6096 131.67 49.8168C131.072 50.0233 130.471 50.0021 129.863 49.7513C129.222 49.4871 128.772 49.0744 128.51 48.5127ZM124.065 57.5645C123.719 56.7321 123.72 55.8942 124.068 55.0507C124.402 54.2428 124.985 53.6651 125.818 53.3174C126.65 52.9714 127.473 52.966 128.281 53.2993C129.123 53.6468 129.717 54.237 130.065 55.07C130.411 55.904 130.417 56.7248 130.083 57.5327C129.735 58.3762 129.145 58.971 128.312 59.3171C127.479 59.6625 126.641 59.6615 125.799 59.3141C124.991 58.9807 124.412 58.3969 124.065 57.5645Z" fill="#98A2F5"/>
</g>
</g>
</g>
</g>
</g>
</svg>
