<svg width="170" height="169" viewBox="0 0 170 169" fill="none" xmlns="http://www.w3.org/2000/svg">
<g clip-path="url(#clip0_175_2042)">
<path d="M144.53 26.9412C117.125 26.9412 88.7236 1.53808 88.4424 1.28359C86.5547 -0.427864 83.6774 -0.427864 81.79 1.28359C81.5071 1.54006 53.1805 26.9412 25.7021 26.9412C22.9678 26.9412 20.751 29.158 20.751 31.8924V91.187C20.751 139.221 56.4773 158.415 83.3503 168.674C83.919 168.892 84.5174 169 85.1162 169C85.715 169 86.3134 168.891 86.8821 168.674C124.562 154.29 149.481 131.851 149.481 91.187V31.8924C149.481 29.158 147.265 26.9412 144.53 26.9412Z" fill="url(#paint0_linear_175_2042)"/>
<path d="M85.1162 49.8418C66.0057 49.8418 50.458 65.3895 50.458 84.5C50.458 103.611 66.0057 119.158 85.1162 119.158C104.227 119.158 119.774 103.611 119.774 84.5C119.774 65.3895 104.227 49.8418 85.1162 49.8418ZM98.5194 83.0496L83.6658 97.9031C82.6994 98.8699 81.4322 99.3535 80.165 99.3535C78.8979 99.3535 77.6307 98.8703 76.6642 97.9031L71.7131 92.952C69.7795 91.0184 69.7795 87.8836 71.7131 85.95C73.6463 84.0164 76.7814 84.0164 78.715 85.95L80.1654 87.4001L91.5181 76.0477C93.4513 74.1141 96.5864 74.1141 98.52 76.0477C100.453 77.9813 100.453 81.116 98.5194 83.0496Z" fill="url(#paint1_linear_175_2042)"/>
</g>
<defs>
<linearGradient id="paint0_linear_175_2042" x1="85.1162" y1="169" x2="85.1162" y2="-8.05855e-05" gradientUnits="userSpaceOnUse">
<stop stop-color="#00B59C"/>
<stop offset="1" stop-color="#9CFFAC"/>
</linearGradient>
<linearGradient id="paint1_linear_175_2042" x1="85.1162" y1="119.158" x2="85.1162" y2="49.8418" gradientUnits="userSpaceOnUse">
<stop stop-color="#C3FFE8"/>
<stop offset="0.9973" stop-color="#F0FFF4"/>
</linearGradient>
<clipPath id="clip0_175_2042">
<rect width="169" height="169" fill="white" transform="translate(0.616211)"/>
</clipPath>
</defs>
</svg>
