<svg width="629" height="585" viewBox="0 0 629 585" fill="none" xmlns="http://www.w3.org/2000/svg">
<g filter="url(#filter0_f_1048_1839)">
<rect x="164.954" y="149" width="561" height="251.05" rx="125.525" transform="rotate(3.73136 164.954 149)" fill="url(#paint0_linear_1048_1839)" fill-opacity="0.28"/>
</g>
<rect x="310.616" y="238" width="146" height="49" rx="24.5" fill="white"/>
<path d="M341.923 270H337.214V255.455H342.072C343.497 255.455 344.721 255.746 345.744 256.328C346.767 256.906 347.55 257.737 348.095 258.821C348.644 259.901 348.919 261.196 348.919 262.706C348.919 264.221 348.642 265.523 348.088 266.612C347.539 267.701 346.743 268.539 345.701 269.126C344.66 269.709 343.4 270 341.923 270ZM339.409 268.082H341.802C342.91 268.082 343.831 267.874 344.565 267.457C345.299 267.036 345.848 266.428 346.213 265.632C346.577 264.832 346.76 263.857 346.76 262.706C346.76 261.565 346.577 260.597 346.213 259.801C345.853 259.006 345.316 258.402 344.601 257.99C343.886 257.578 342.998 257.372 341.937 257.372H339.409V268.082ZM356.179 270.22C355.104 270.22 354.179 269.991 353.402 269.531C352.63 269.067 352.034 268.416 351.612 267.578C351.196 266.735 350.987 265.748 350.987 264.616C350.987 263.499 351.196 262.514 351.612 261.662C352.034 260.81 352.621 260.144 353.374 259.666C354.131 259.188 355.017 258.949 356.03 258.949C356.645 258.949 357.242 259.051 357.82 259.254C358.397 259.458 358.916 259.777 359.375 260.213C359.834 260.649 360.197 261.214 360.462 261.911C360.727 262.602 360.859 263.442 360.859 264.432V265.185H352.188V263.594H358.778C358.778 263.035 358.665 262.54 358.438 262.109C358.21 261.674 357.891 261.33 357.479 261.08C357.072 260.829 356.593 260.703 356.044 260.703C355.448 260.703 354.927 260.85 354.482 261.143C354.041 261.432 353.7 261.811 353.459 262.28C353.222 262.744 353.104 263.248 353.104 263.793V265.036C353.104 265.765 353.232 266.385 353.487 266.896C353.748 267.408 354.11 267.798 354.574 268.068C355.038 268.333 355.58 268.466 356.2 268.466C356.603 268.466 356.97 268.409 357.301 268.295C357.633 268.177 357.919 268.002 358.161 267.77C358.402 267.538 358.587 267.251 358.715 266.911L360.725 267.273C360.564 267.865 360.275 268.383 359.858 268.828C359.446 269.268 358.928 269.612 358.303 269.858C357.682 270.099 356.975 270.22 356.179 270.22ZM365.339 255.455V270H363.216V255.455H365.339ZM370.32 263.523V270H368.196V255.455H370.291V260.866H370.426C370.682 260.279 371.073 259.813 371.598 259.467C372.124 259.122 372.81 258.949 373.658 258.949C374.406 258.949 375.059 259.103 375.618 259.411C376.181 259.718 376.617 260.178 376.925 260.788C377.237 261.394 377.394 262.152 377.394 263.061V270H375.27V263.317C375.27 262.517 375.064 261.896 374.652 261.456C374.24 261.011 373.667 260.788 372.933 260.788C372.431 260.788 371.982 260.895 371.584 261.108C371.191 261.321 370.881 261.634 370.653 262.045C370.431 262.453 370.32 262.945 370.32 263.523ZM380.227 270V259.091H382.351V270H380.227ZM381.3 257.408C380.93 257.408 380.613 257.285 380.348 257.038C380.088 256.787 379.957 256.489 379.957 256.143C379.957 255.793 380.088 255.495 380.348 255.249C380.613 254.998 380.93 254.872 381.3 254.872C381.669 254.872 381.984 254.998 382.244 255.249C382.51 255.495 382.642 255.793 382.642 256.143C382.642 256.489 382.51 256.787 382.244 257.038C381.984 257.285 381.669 257.408 381.3 257.408ZM402.411 255.455V270H400.394L393.001 259.332H392.866V270H390.671V255.455H392.703L400.103 266.136H400.238V255.455H402.411ZM417.694 260.185H415.478C415.392 259.711 415.234 259.295 415.002 258.935C414.77 258.575 414.486 258.269 414.15 258.018C413.813 257.768 413.437 257.578 413.02 257.45C412.608 257.322 412.17 257.259 411.706 257.259C410.868 257.259 410.118 257.469 409.455 257.891C408.797 258.312 408.276 258.93 407.892 259.744C407.514 260.559 407.324 261.553 407.324 262.727C407.324 263.911 407.514 264.91 407.892 265.724C408.276 266.539 408.799 267.154 409.462 267.571C410.125 267.988 410.871 268.196 411.699 268.196C412.159 268.196 412.594 268.134 413.006 268.011C413.423 267.884 413.799 267.696 414.135 267.45C414.472 267.204 414.756 266.903 414.988 266.548C415.224 266.188 415.388 265.777 415.478 265.312L417.694 265.32C417.575 266.035 417.346 266.693 417.005 267.294C416.669 267.891 416.235 268.407 415.705 268.842C415.179 269.273 414.578 269.607 413.901 269.844C413.224 270.08 412.485 270.199 411.685 270.199C410.426 270.199 409.303 269.901 408.319 269.304C407.334 268.703 406.557 267.843 405.989 266.726C405.426 265.608 405.144 264.276 405.144 262.727C405.144 261.174 405.428 259.841 405.996 258.729C406.564 257.611 407.341 256.754 408.326 256.158C409.311 255.556 410.43 255.256 411.685 255.256C412.457 255.256 413.177 255.367 413.844 255.589C414.517 255.807 415.12 256.129 415.655 256.555C416.19 256.977 416.633 257.493 416.983 258.104C417.334 258.71 417.571 259.403 417.694 260.185ZM420.32 270V255.455H425.504C426.631 255.455 427.566 255.649 428.31 256.037C429.058 256.425 429.617 256.963 429.986 257.649C430.355 258.331 430.54 259.119 430.54 260.014C430.54 260.904 430.353 261.688 429.979 262.365C429.609 263.037 429.051 263.561 428.303 263.935C427.559 264.309 426.624 264.496 425.497 264.496H421.57V262.607H425.298C426.009 262.607 426.586 262.505 427.031 262.301C427.481 262.098 427.81 261.802 428.019 261.413C428.227 261.025 428.331 260.559 428.331 260.014C428.331 259.465 428.225 258.989 428.011 258.587C427.803 258.184 427.474 257.876 427.024 257.663C426.579 257.446 425.994 257.337 425.27 257.337H422.514V270H420.32ZM427.5 263.438L431.094 270H428.594L425.071 263.438H427.5Z" fill="#1B1C57"/>
<path d="M388.37 171.479L370.873 198.526L354.177 205.671C344.34 194.401 333.835 181.03 328.868 164.125L338.865 145.533L354.942 138.052C354.656 139.771 354.464 141.49 354.464 143.305C354.464 159.063 367.357 171.957 383.117 171.957C384.931 171.957 386.65 171.766 388.37 171.479Z" fill="#FFDA2D"/>
<path d="M411.293 148.529C411.58 146.819 411.768 145.11 411.768 143.304C411.768 127.558 398.893 114.671 383.15 114.652H383.115C381.301 114.652 379.581 114.843 377.862 115.13L403.267 89.7246C418.644 95.4551 430.965 107.776 436.695 123.152L411.29 148.557C411.29 148.548 411.293 148.538 411.293 148.529Z" fill="#80AEF8"/>
<path d="M436.696 123.152L428.005 140.121L411.291 148.557C411.291 148.548 411.294 148.538 411.294 148.529C411.581 146.819 411.769 145.11 411.769 143.304C411.769 127.558 398.894 114.671 383.151 114.652H383.126V109.867L388.847 97.1424L403.269 89.7246C418.645 95.4551 430.966 107.776 436.696 123.152Z" fill="#4086F4"/>
<path d="M436.696 123.152L411.291 148.557C409.094 160.114 399.926 169.282 388.369 171.479H388.369L360.712 199.135L354.177 205.67C355.801 207.485 357.233 209.109 358.761 210.828C369.268 222.767 378.341 233.718 378.341 244.224C378.341 246.898 380.442 249 383.116 249C385.791 249 387.892 246.898 387.892 244.224C387.892 233.718 396.965 222.767 407.471 210.829C422.179 194.305 440.421 173.676 440.421 143.304C440.421 136.237 439.179 129.456 436.696 123.152Z" fill="#59C36A"/>
<path d="M436.696 123.152L411.291 148.557C409.094 160.114 399.926 169.282 388.369 171.479C388.369 171.479 388.369 171.479 388.368 171.479L383.126 176.721V248.998C385.796 248.992 387.891 246.895 387.891 244.224C387.891 233.718 396.965 222.767 407.471 210.829C422.179 194.305 440.421 173.676 440.421 143.304C440.421 136.237 439.179 129.456 436.696 123.152Z" fill="#00A66C"/>
<path d="M383.126 176.723L388.369 171.479C386.653 171.765 384.937 171.954 383.126 171.956V176.723Z" fill="#FDBF00"/>
<path d="M403.268 89.7248L377.862 115.13C372.037 116.276 366.879 119.045 362.868 123.057L348.096 116.881L342.62 102.809C352.935 92.3987 367.261 86 383.115 86C390.183 86 396.964 87.2416 403.268 89.7248Z" fill="#4086F4"/>
<path d="M383.126 109.867L403.268 89.7248C396.968 87.2426 390.19 86.0023 383.126 86.001V109.867H383.126Z" fill="#4175DF"/>
<path d="M362.869 123.057C358.858 127.069 356.087 132.226 354.941 138.052L328.868 164.126C326.958 157.727 325.812 150.85 325.812 143.305C325.812 127.45 332.21 113.124 342.621 102.81L362.869 123.057Z" fill="#F03800"/>
<defs>
<filter id="filter0_f_1048_1839" x="0.514648" y="0.898193" width="872.352" height="583.23" filterUnits="userSpaceOnUse" color-interpolation-filters="sRGB">
<feFlood flood-opacity="0" result="BackgroundImageFix"/>
<feBlend mode="normal" in="SourceGraphic" in2="BackgroundImageFix" result="shape"/>
<feGaussianBlur stdDeviation="78" result="effect1_foregroundBlur_1048_1839"/>
</filter>
<linearGradient id="paint0_linear_1048_1839" x1="38.4541" y1="156.831" x2="366.162" y2="600.846" gradientUnits="userSpaceOnUse">
<stop stop-color="#338CFF"/>
<stop offset="1" stop-color="#8DC63F"/>
</linearGradient>
</defs>
</svg>
