<svg width="629" height="585" viewBox="0 0 629 585" fill="none" xmlns="http://www.w3.org/2000/svg">
<g filter="url(#filter0_f_1048_1823)">
<rect x="164.954" y="149" width="561" height="251.05" rx="125.525" transform="rotate(3.73136 164.954 149)" fill="url(#paint0_linear_1048_1823)" fill-opacity="0.28"/>
</g>
<path d="M406.866 213V111.75H481.866V344.25H406.866V235.5V213Z" fill="#6B4AA0"/>
<path d="M271.866 243V288L249.366 333L268.116 344.25L298.116 295.5L301.866 265.5L271.866 243Z" fill="#0960CF"/>
<path d="M316.866 134.25C316.866 146.662 306.779 156.75 294.366 156.75C281.954 156.75 271.866 146.662 271.866 134.25C271.866 131.625 272.316 129.112 273.179 126.75C276.216 118.013 284.579 111.75 294.366 111.75C304.154 111.75 312.516 118.013 315.554 126.75C316.416 129.112 316.866 131.625 316.866 134.25Z" fill="#338CFF"/>
<path d="M466.866 156.75C466.866 169.162 456.779 179.25 444.366 179.25C440.841 179.25 437.504 178.425 434.541 177C431.841 175.688 429.404 173.813 427.454 171.563C423.966 167.625 421.866 162.45 421.866 156.75C421.866 144.338 431.954 134.25 444.366 134.25C456.779 134.25 466.866 144.338 466.866 156.75Z" fill="#F9B130"/>
<path d="M301.866 183V216.75C301.866 225.034 308.582 231.75 316.866 231.75H354.366C362.65 231.75 369.366 225.034 369.366 216.75V209.25H324.366V179.25C324.366 166.823 314.294 156.75 301.866 156.75H286.866C274.439 156.75 264.366 166.823 264.366 179.25V220.5C264.366 234.664 271.034 248.002 282.366 256.5L324.366 288V344.25H346.866V273L316.866 239.25V231.75L301.866 183Z" fill="#338CFF"/>
<path d="M315.55 126.75C312.46 118.016 304.157 111.75 294.366 111.75C284.575 111.75 276.272 118.016 273.182 126.75C272.32 129.112 271.866 131.625 271.866 134.25H335.616V126.75H315.55Z" fill="#6B4AA0"/>
<path d="M324.366 156.75H384.366V209.25H324.366V156.75Z" fill="#8DC63F"/>
<path d="M346.866 156.75H361.866V179.25H346.866V156.75Z" fill="#F8E2CE"/>
<path d="M481.866 179.25V261.75L458.279 238.162L452.916 232.8C450.479 234.487 447.516 235.5 444.366 235.5H399.366V213H436.866V194.25C436.866 185.962 443.579 179.25 451.866 179.25H481.866Z" fill="#F9B130"/>
<path d="M444.367 160.5C444.367 167.625 440.392 173.812 434.542 177C431.842 175.687 429.404 173.813 427.454 171.563C432.779 170.7 436.867 166.05 436.867 160.5H444.367Z" fill="#5D3B6B"/>
<path d="M335.616 190.5H343.116V198H335.616V190.5Z" fill="#F8E2CE"/>
<path d="M316.866 231.75C308.582 231.75 301.866 225.034 301.866 216.75V183H294.366V190.5V216.75C294.366 229.155 304.461 239.25 316.866 239.25V231.75Z" fill="#0960CF"/>
<path d="M466.866 205.5V220.5C466.866 227.663 463.491 234.075 458.279 238.162L452.916 232.8C456.816 230.1 459.366 225.6 459.366 220.5V205.5H466.866Z" fill="#F47238"/>
<path d="M71.1162 293.75H116.616V339.25H71.1162V293.75Z" fill="#926745"/>
<path d="M45.9515 353.7L51.6162 407.5H32.1162V355.5L45.9515 353.7Z" fill="#336EA3"/>
<path d="M41.8662 280.75C31.4167 289.112 24.4877 301.092 22.4507 314.319L19.1162 336H48.3662L51.8177 320.462L54.5445 304.537C54.759 302.036 54.8662 299.524 54.8662 297V290.5L41.8662 280.75Z" fill="#C9182A"/>
<path d="M28.9505 311.069C28.5387 313.751 28.7115 316.49 29.4572 319.099C30.2029 321.708 31.5037 324.125 33.2705 326.184C35.0374 328.243 37.2285 329.896 39.6938 331.029C42.159 332.163 44.8402 332.75 47.5535 332.75H49.0875L51.8175 320.462L54.5442 304.537C54.7587 302.036 54.866 299.524 54.866 297V290.5L43.491 281.979C35.7347 289.926 30.6516 300.095 28.9505 311.069Z" fill="#EA232F"/>
<path d="M132.866 225.5H204.363V352.25H132.866V225.5Z" fill="#926745"/>
<path d="M204.366 225.5H139.366V310.702C139.366 319.997 143.059 328.912 149.632 335.485C156.204 342.057 165.119 345.75 174.414 345.75H204.366V225.5Z" fill="#B48155"/>
<path d="M77.6162 293.75V304.949L91.5262 306.214C94.8489 306.512 97.9373 308.051 100.176 310.524C102.415 312.997 103.639 316.224 103.605 319.559C103.571 322.895 102.281 326.096 99.9923 328.523C97.7037 330.95 94.5845 332.426 91.2565 332.656C91.5815 332.675 91.874 332.75 92.199 332.75H116.616V293.75H77.6162Z" fill="#B48155"/>
<path d="M54.8662 323L84.425 325.958C86.375 326.153 88.3401 326.25 90.3205 326.25C92.1228 326.25 93.8513 325.534 95.1258 324.26C96.4002 322.985 97.1162 321.257 97.1162 319.454C97.116 317.76 96.4826 316.126 95.3402 314.874C94.1978 313.622 92.6289 312.843 90.9412 312.688L61.3662 310L47.544 298.95C45.9769 297.692 44.0285 297.004 42.019 297C41.1459 296.998 40.2811 297.169 39.474 297.502C38.667 297.835 37.9335 298.323 37.3155 298.94C36.6976 299.557 36.2074 300.289 35.8729 301.096C35.5384 301.902 35.3662 302.767 35.3662 303.64C35.3664 304.613 35.5804 305.575 35.9932 306.457C36.4059 307.338 37.0074 308.119 37.755 308.742L54.8662 323Z" fill="#C9182A"/>
<path d="M48.3662 336L38.6162 407.5H22.3662V378.451C22.3663 374.001 21.8206 369.568 20.7412 365.25C19.6619 360.932 19.1161 356.499 19.1162 352.049V336H48.3662Z" fill="#336EA3"/>
<path d="M87.3662 293.75V306.75H100.366V293.75" fill="#5C4436"/>
<path d="M123.116 352.25H214.116V365.25H123.116V352.25Z" fill="#313133"/>
<path d="M204.366 297H191.366C190.504 297 189.678 296.658 189.068 296.048C188.459 295.439 188.116 294.612 188.116 293.75V267.75C188.116 266.888 188.459 266.061 189.068 265.452C189.678 264.842 190.504 264.5 191.366 264.5H204.366V271H194.616V290.5H204.366V297Z" fill="#9EBED3"/>
<path d="M136.116 358.75H214.116V352.25H129.616C129.616 353.974 130.301 355.627 131.52 356.846C132.739 358.065 134.392 358.75 136.116 358.75Z" fill="#4F4F4F"/>
<path d="M71.1162 264.5V260.951C71.1162 257.582 69.7781 254.352 67.3962 251.97C65.0143 249.588 61.7837 248.25 58.4152 248.25C56.3242 248.25 54.2655 248.766 52.4218 249.753C50.5781 250.739 49.0065 252.165 47.8462 253.905C46.0661 256.575 45.1161 259.712 45.1162 262.92V277.5L71.1162 264.5Z" fill="#313133"/>
<path d="M62.832 262.439L57.5475 265.962C55.7898 267.133 54.3691 268.743 53.4265 270.633C52.2504 272.979 50.3464 274.882 47.999 276.057L45.1162 277.5L41.8662 280.75C42.7823 283.506 44.5181 285.916 46.8412 287.658C49.1644 289.401 51.9642 290.392 54.8662 290.5V284H58.1162C59.8401 284 61.4934 283.315 62.7124 282.096C63.9314 280.877 64.6162 279.224 64.6162 277.5H67.8662V271L70.0535 264.233L62.832 262.439Z" fill="#FFCDA4"/>
<path d="M58.4154 248.25C56.3244 248.25 54.2657 248.766 52.422 249.753C50.5783 250.739 49.0066 252.165 47.8464 253.905C46.968 255.223 46.288 256.663 45.8281 258.179L71.1164 264.5V260.951C71.1164 257.582 69.7782 254.352 67.3963 251.97C65.0144 249.588 61.7839 248.25 58.4154 248.25Z" fill="#336EA3"/>
<path d="M47.1405 255.156C46.0875 257.08 45.4373 259.197 45.2295 261.38L83.326 270.903L84.9055 264.597L47.1405 255.156Z" fill="#407DBC"/>
<path d="M90.9414 312.688L83.3689 311.999L81.4189 325.649L84.4284 325.948C86.3862 326.147 88.3528 326.248 90.3207 326.25C92.0674 326.247 93.7459 325.571 95.0077 324.363C96.2695 323.155 97.0177 321.508 97.0972 319.763C97.1766 318.018 96.5812 316.31 95.4343 314.992C94.2875 313.675 92.6807 312.849 90.9414 312.688Z" fill="#FFCDA4"/>
<path d="M48.3662 336H25.6162V345.548C25.6161 349.999 26.1619 354.432 27.2412 358.75C28.3206 363.068 28.8663 367.501 28.8662 371.951V392.323C28.8507 393.636 29.1371 394.935 29.7032 396.12C30.2692 397.305 31.0999 398.345 32.1312 399.158C33.1624 399.971 34.3666 400.537 35.6511 400.811C36.9355 401.085 38.2657 401.061 39.5392 400.74L48.3662 336Z" fill="#407DBC"/>
<path d="M54.8662 407.5C57.4521 407.5 59.932 408.527 61.7605 410.356C63.589 412.184 64.6162 414.664 64.6162 417.25V420.5H38.6162V407.5H54.8662Z" fill="#B48155"/>
<path d="M38.6162 407.5C41.2021 407.5 43.682 408.527 45.5105 410.356C47.339 412.184 48.3662 414.664 48.3662 417.25V420.5H22.3662V407.5H38.6162Z" fill="#926745"/>
<defs>
<filter id="filter0_f_1048_1823" x="0.514648" y="0.898438" width="872.352" height="583.23" filterUnits="userSpaceOnUse" color-interpolation-filters="sRGB">
<feFlood flood-opacity="0" result="BackgroundImageFix"/>
<feBlend mode="normal" in="SourceGraphic" in2="BackgroundImageFix" result="shape"/>
<feGaussianBlur stdDeviation="78" result="effect1_foregroundBlur_1048_1823"/>
</filter>
<linearGradient id="paint0_linear_1048_1823" x1="38.4541" y1="156.831" x2="366.162" y2="600.846" gradientUnits="userSpaceOnUse">
<stop stop-color="#338CFF"/>
<stop offset="1" stop-color="#8DC63F"/>
</linearGradient>
</defs>
</svg>
