<svg width="129" height="94" viewBox="0 0 129 94" fill="none" xmlns="http://www.w3.org/2000/svg">
<g clip-path="url(#clip0_374_4016)">
<g clip-path="url(#clip1_374_4016)">
<path fill-rule="evenodd" clip-rule="evenodd" d="M118.492 38.3305C118.807 38.1731 119.103 37.9861 119.378 37.7795H128.559C128.343 38.8718 128.067 39.964 127.743 41.0367C126.758 42.0207 125.647 42.9359 124.564 43.851C123.728 47.0492 122.812 50.1785 122.006 53.4062C120.648 54.3902 119.388 55.3743 118.069 56.3583C116.692 56.2796 115.393 56.3583 113.917 56.3583C113.995 55.6301 114.31 54.833 114.399 53.9868C113.976 54.1836 113.562 54.4197 113.179 54.6953C112.795 54.9413 112.411 55.1676 111.998 55.394C110.423 56.319 108.593 56.6929 106.782 56.437C105.523 56.2501 104.391 55.5711 103.633 54.5477C101.892 55.8958 98.467 57.1357 95.633 56.2501C93.8223 55.6793 92.8481 54.0064 93.2614 51.625C92.5824 51.7333 91.9034 51.7923 91.2244 51.812C90.9981 52.3532 90.8013 52.9141 90.634 53.4751C89.6499 54.1737 88.6659 54.9905 87.6818 55.7777C87.3866 56.0631 87.0521 56.3091 86.6978 56.5158C85.9696 56.5847 85.2414 56.5847 84.5132 56.5158C83.785 56.5748 83.0568 56.5748 82.3286 56.5158C83.5095 52.1072 84.71 47.187 86.0188 42.6013C86.127 41.9518 86.3042 41.322 86.5404 40.7119C86.7864 40.4167 87.0717 40.151 87.3866 39.9345C88.292 39.1866 89.2465 38.5569 90.0928 37.7795H94.029C95.3476 37.7795 96.7253 37.6515 97.8766 37.7795C98.2998 37.868 98.6934 38.0255 99.0575 38.2616C99.3035 38.6159 99.5593 38.98 99.7955 39.3343C100.671 38.7733 101.586 38.2813 102.541 37.8582C103.692 37.5138 104.883 37.3662 106.084 37.4449C107.619 37.5039 109.036 38.1042 109.567 39.3343C110.787 38.242 112.313 37.5531 113.936 37.3662C115.511 37.1693 117.115 37.4941 118.492 38.2912M117.971 38.7045C117.016 38.1239 115.904 37.8483 114.783 37.8975C114.143 37.9369 113.503 38.0648 112.893 38.2715C111.712 38.5077 110.669 39.167 109.941 40.1215C109.36 41.0859 109.154 42.2274 109.351 43.3393C109.715 44.1659 110.217 44.9138 110.846 45.5633C111.407 46.3112 112.086 46.9606 112.549 47.6003C112.736 47.8365 112.883 48.0923 112.992 48.3777C113.297 49.096 112.962 49.9226 112.254 50.2277C112.067 50.3064 111.87 50.3458 111.673 50.3359C111.565 50.3359 111.535 50.2375 111.486 50.2277C111.437 50.2179 111.348 50.2277 111.26 50.2277C110.374 49.8144 110.738 48.9386 110.896 48.0037H107.56C107.235 48.8402 107.048 49.7357 107.009 50.6312C107.107 52.4418 108.849 53.2192 110.669 53.229C111.988 53.2881 113.287 52.9437 114.409 52.245C114.96 51.9498 115.462 51.5562 115.885 51.0937C116.652 50.0801 117.026 48.8107 116.928 47.5412C116.692 46.3702 116.052 45.3271 115.117 44.5891C114.438 44.0183 113.818 43.3689 113.267 42.6702C112.992 42.2077 112.913 41.6665 113.051 41.1449C113.326 40.7316 113.818 40.5151 114.31 40.5938C115.452 40.7808 115.088 42.3258 114.901 43.113C115.885 43.1917 117.095 43.113 118.01 43.113C118.492 41.8337 119.103 39.659 118.01 38.6651M101.419 38.9603C101.075 39.1768 100.77 39.4327 100.504 39.7377C100.278 39.9345 100.081 40.1609 99.9136 40.4069C99.766 40.8005 99.6577 41.2138 99.579 41.6271C98.8705 44.0872 98.1817 46.5473 97.542 48.9189C97.4043 49.3322 97.296 49.7553 97.2075 50.1785C96.991 51.5168 97.8569 52.7862 99.1756 53.0716C101.527 53.6423 104.253 53.0224 105.513 51.6546C105.887 51.2511 106.202 50.7886 106.428 50.2867C106.694 49.6471 106.851 48.7811 107.097 47.9545C107.57 46.4096 108.081 44.7957 108.435 43.2508C108.681 42.4537 108.878 41.6369 109.026 40.8103C109.134 40.1904 109.026 39.5507 108.731 38.9997C108.239 38.5372 107.638 38.2223 106.989 38.0747C106.143 37.9074 105.287 37.868 104.43 37.9566C103.358 38.0747 102.325 38.4092 101.39 38.9406M119.831 38.3502C119.585 39.1079 119.398 39.8952 119.27 40.6824H121.386C120.402 44.6875 119.25 48.4958 118.276 52.491C119.329 52.5501 120.372 52.5501 121.425 52.491C122.557 48.5548 123.541 44.7072 124.643 40.7513C125.43 40.8103 126.227 40.8103 127.014 40.7513C127.211 39.9542 127.506 39.0489 127.644 38.3108C124.692 38.3108 122.32 38.2616 119.831 38.3108M96.9319 47.1673C97.3944 46.6162 97.729 45.9766 97.916 45.2779C98.349 44.1955 98.6737 43.0835 98.9 41.942C99.0575 41.4106 99.1657 40.8595 99.2051 40.2986C99.2936 39.4523 98.7623 38.6651 97.9455 38.4191C97.3452 38.3797 96.7351 38.3797 96.1348 38.4191H90.6537C89.3744 43.1622 88.0558 47.8561 86.8749 52.5993C87.9475 52.6583 89.0202 52.6583 90.0928 52.5993C90.5159 51.1527 90.8997 49.6471 91.3524 48.2694C93.6649 48.417 95.633 48.4367 96.9418 47.2362" fill="#374151"/>
<path fill-rule="evenodd" clip-rule="evenodd" d="M53.2107 37.8975H53.3583V38.114H53.2107C53.1615 38.0353 53.1615 37.9369 53.2107 37.8582" fill="#374151"/>
<path fill-rule="evenodd" clip-rule="evenodd" d="M100.898 50.2277C100.898 50.0998 100.839 49.9817 100.75 49.8931C100.839 48.9681 101.035 48.0628 101.34 47.187C101.734 45.7798 102.108 44.4316 102.521 42.8965C102.63 42.188 102.915 41.509 103.338 40.9284C103.919 40.4856 105.306 40.4364 105.414 41.3417C105.385 41.696 105.316 42.0404 105.188 42.375C104.794 44.0577 104.361 45.7109 103.899 47.3739C103.712 48.0431 103.604 48.7319 103.377 49.3421C103.289 49.5782 103.181 49.8046 103.043 50.0112C102.443 50.5426 101.577 50.6115 100.898 50.1982" fill="#374151"/>
<path fill-rule="evenodd" clip-rule="evenodd" d="M57.2846 50.0013C56.7434 50.4245 56.0152 50.513 55.3953 50.2178C54.9229 49.6372 55.5133 48.3383 55.7298 47.5904C56.2612 45.7502 56.7139 44.0675 57.1764 42.2569C57.2453 41.9026 57.3437 41.5582 57.4716 41.2236C57.7865 40.6529 59.5086 40.3281 59.6562 41.2236C59.6365 41.6271 59.5676 42.0207 59.4397 42.4045C59.2134 43.4771 58.8001 44.6776 58.5442 45.701C58.2293 47.1574 57.816 48.604 57.2945 50.0013" fill="#374151"/>
<path fill-rule="evenodd" clip-rule="evenodd" d="M92.0903 45.6322C92.5036 44.0577 92.9366 42.4931 93.3794 40.9284C94.1175 40.7415 95.4066 40.6824 95.5345 41.4106C95.5443 41.6763 95.5247 41.9322 95.4558 42.188C95.2393 43.2902 94.885 44.3628 94.3832 45.3763C93.714 45.8388 92.8481 45.9372 92.0903 45.6322Z" fill="#374151"/>
<path fill-rule="evenodd" clip-rule="evenodd" d="M67.0562 44.3332C67.3514 43.1622 67.7056 42.0207 68.1288 40.889C69.0341 41.0268 70.3822 40.4659 70.1658 41.9321C70.0673 42.5914 69.6442 43.418 69.4966 43.9986C69.103 44.5103 67.7647 44.3824 67.0562 44.3332Z" fill="#374151"/>
<path fill-rule="evenodd" clip-rule="evenodd" d="M86.501 37.7794H81.5808C81.2856 38.0451 80.951 38.3108 80.5967 38.5568C80.3114 38.8324 79.9768 39.0587 79.6127 39.226C79.7209 38.7438 79.8095 38.2616 79.8685 37.7794H75.0172C74.7515 38.055 74.4563 38.2912 74.1315 38.488C73.8068 38.2223 73.4427 38.0156 73.0589 37.8582C72.4094 37.7794 71.7403 37.7794 71.0908 37.8582H64.5764C64.2418 38.1534 63.8974 38.4191 63.5333 38.6749C62.0277 37.1398 58.3474 37.1005 56.1726 37.9369C56.0053 37.9369 56.1726 37.7106 55.9168 37.7893H51.1343C50.3864 38.3305 49.8353 38.9505 48.989 39.413C48.9202 39.0193 48.989 38.2419 48.8808 37.7794H43.9605C43.6653 38.055 43.3406 38.2813 42.9765 38.4486C42.9765 38.1632 43.1241 38.0353 43.1536 37.7794H38.8041C38.2629 38.2321 37.6725 38.6257 37.0427 38.9603C37.023 38.5667 36.9935 38.1731 36.9344 37.7794H34.7695C34.061 37.7007 33.3328 37.7007 32.6243 37.7794C32.1224 37.9271 31.7977 38.6454 31.2565 38.7045C31.1974 38.3896 31.1581 38.0648 31.1384 37.7401C26.8676 37.7598 20.7566 37.5728 16.1808 37.7794C15.738 37.7302 15.2952 37.7007 14.8523 37.7106C14.38 37.809 13.8092 38.6946 13.3271 38.6946C13.2483 38.3699 13.209 38.0058 13.1106 37.7106H8.50521C7.46212 38.4388 6.53711 39.3146 5.55306 40.0723C5.17912 40.3872 4.76582 40.5446 4.56901 40.889C4.44109 41.3417 4.35252 41.8042 4.29348 42.2667C3.99826 43.3295 3.77193 44.2348 3.51608 45.2189C2.60091 48.9583 1.42005 52.8945 0.632812 56.4862H4.74614C5.42514 55.9155 6.13365 55.3939 6.89137 54.9216C7.02914 55.4038 7.00946 55.9057 7.14722 56.4862H10.0994C10.4241 56.5158 10.7587 56.5158 11.0834 56.4862C11.4082 56.4075 11.5361 55.9942 11.8215 55.9253C12.0281 56.0434 12.097 56.2993 12.2348 56.4862C14.3898 56.3386 16.8992 56.5354 18.5622 56.4862C19.1231 56.5354 19.6742 56.5354 20.2351 56.4862C20.5401 56.3288 20.8255 56.1221 21.0814 55.8958C21.3372 55.6498 21.6324 55.4628 21.967 55.3349C21.967 55.7777 21.8293 56.1713 21.8588 56.4862H25.1553C25.3423 56.4862 25.5194 56.4862 25.7064 56.4862C26.1788 56.4272 26.6905 55.886 27.0742 55.6301C27.4187 55.2955 27.8418 55.0397 28.3043 54.8921C28.2157 55.4333 28.0485 55.8761 27.9697 56.4469H29.8886C30.5873 56.5256 31.3057 56.5256 32.0043 56.4469C32.3192 56.378 32.7227 55.9253 33.0376 55.6596C34.0905 54.8626 35.2714 54.0753 36.1669 53.3274C37.515 50.3753 38.9812 47.3444 40.3589 44.471C40.5557 44.0577 40.6345 43.546 41.0182 43.2508C41.2642 44.9335 41.4807 46.6162 41.648 48.171C41.7661 48.7122 41.8252 49.2535 41.835 49.8045C41.7267 50.3556 41.5791 50.8968 41.3922 51.4282L40.0539 56.3977H44.5707C45.6039 55.6892 46.4797 54.8429 47.5228 54.1737C48.192 55.5809 49.5893 56.4961 51.1539 56.5453C52.6694 56.6535 54.1848 56.3288 55.5231 55.6203C56.0742 55.2759 56.6646 54.9806 57.2649 54.7346C57.2157 55.3251 57.0681 55.8171 57.009 56.3977H61.2306C61.7325 56.0139 62.2639 55.6695 62.8149 55.3644C62.8149 55.7974 62.6477 55.9745 62.6378 56.3485C64.6846 56.4075 67.0562 56.3485 69.2998 56.3485C70.0772 56.4272 70.8546 56.4272 71.632 56.3485C71.9961 56.1812 72.3209 55.9549 72.6161 55.6793C72.9703 55.4333 73.2164 55.0889 73.6001 55.02C73.8068 55.4431 73.9741 55.886 74.0823 56.3485H79.0026C80.3212 55.3152 81.5709 54.2032 82.9388 53.1995C82.2795 50.395 81.6497 47.5707 81.0494 44.717C82.8207 42.68 84.5723 40.3478 86.2452 38.2223C86.3239 38.1239 86.5502 37.9467 86.4617 37.7794M11.2901 52.6288C10.8965 49.9423 10.7193 47.2657 10.306 44.6284C9.48926 47.187 8.83979 50.0604 7.96399 52.6288C7.07834 52.6288 6.08445 52.678 5.25785 52.6288C6.38951 47.8069 7.67861 43.1917 8.84963 38.4486C8.86931 38.3896 8.90868 38.3502 8.96772 38.3305H12.6284C12.9236 40.6037 13.1401 42.9555 13.4845 45.2189C14.2422 42.9851 14.7933 40.5545 15.5609 38.3305C16.4859 38.2912 17.4207 38.3207 18.3457 38.4092C17.0468 43.2508 15.8069 47.8856 14.4095 52.6288H11.2901ZM35.5863 52.6288C34.5629 52.6878 33.5395 52.6878 32.516 52.6288C32.6932 49.9029 32.9982 47.3543 33.2147 44.5989C32.8211 45.2189 32.4865 45.8782 32.2307 46.567C31.2466 48.5351 30.3905 50.6508 29.4556 52.678H26.3067C26.3854 48.7418 26.7692 44.7072 26.9365 40.8694H22.7149C22.2721 41.8534 22.0261 43.0736 21.6423 44.1266C22.7444 44.1856 24.2205 44.1266 25.4899 44.1266C25.3817 44.8843 25.0373 45.7109 24.8601 46.5375H21.0519C20.6386 47.679 20.3729 48.9779 20.0186 50.1686C21.3963 50.1686 22.8822 50.1194 24.2008 50.1686C23.945 50.9854 23.6596 51.7726 23.3841 52.5697H16.0529C17.2239 47.7479 18.5032 43.0343 19.7627 38.3108C23.2069 38.2518 26.9463 38.2616 30.5873 38.3108C30.4299 40.6332 30.2232 43.0146 29.9969 45.2681C30.2724 45.0909 30.3511 44.7367 30.4791 44.4611C31.4631 42.493 32.3783 40.338 33.3328 38.3108H36.4818C36.3637 40.7218 36.0389 43.0441 35.9209 45.3862C37.1706 43.2508 38.2235 40.7316 39.4044 38.3797C40.2507 38.3797 41.2642 38.3305 42.2877 38.3797C40.0637 43.1327 37.8299 47.8856 35.5863 52.6288ZM50.101 45.9667C49.8353 46.3013 49.5992 46.6654 49.3925 47.0394C49.2351 47.5314 49.117 48.0234 49.0186 48.5253C48.6741 49.8341 48.2313 51.2511 47.7983 52.7075H44.6494C44.9446 50.828 45.6334 48.9386 46.0566 47.0787C46.0763 46.6162 46.0271 46.1537 45.8991 45.7109C45.5842 43.2508 45.23 40.8792 44.9151 38.4092C46.1156 38.3502 46.8832 38.4092 48.2412 38.4092C48.3789 40.092 48.5265 41.8534 48.6151 43.5263C49.7271 42.0109 50.7308 40.0723 51.8329 38.4092C52.7678 38.4092 54.0175 38.36 55.0606 38.4092C53.5157 40.9186 51.7247 43.3295 50.0912 45.9274M60.7189 50.2572C60.3056 51.1035 59.666 51.8218 58.8787 52.3335C57.1271 53.3176 55.0606 53.5538 53.1319 53.0027C52.6792 52.8354 51.6952 52.3237 51.5476 51.7038C51.2327 50.4442 51.8625 49.0567 52.1282 47.8955C52.5611 46.0258 53.1122 43.9593 53.6534 42.0502C53.801 41.322 54.0864 40.6234 54.5096 40.0034C55.4346 38.7143 56.9106 37.9172 58.5048 37.8582C60.7386 37.6515 62.9232 37.8582 63.2775 39.6688C63.3267 39.9936 63.3267 40.3281 63.2775 40.6529C63.1397 41.4893 62.9429 42.3258 62.687 43.1327C62.2737 44.6776 61.8407 46.3505 61.3979 47.9447C61.1519 48.8205 60.9748 49.7061 60.7288 50.3162M70.6873 52.6878C69.5163 52.6878 68.6012 52.7468 67.2825 52.6878C67.4301 51.5365 67.8926 50.0013 68.2075 48.6434C68.3059 48.2005 68.5716 47.6593 68.4634 47.3149C68.2469 46.6851 67.0759 46.9803 66.3575 46.9114C65.6884 48.7516 65.2357 50.8476 64.6453 52.7272C63.5431 52.678 62.3918 52.7272 61.3881 52.7272C61.8998 50.2966 62.628 47.9447 63.2381 45.5731C63.8482 43.2016 64.4091 40.8103 65.1275 38.4978H70.3921C71.3762 38.4978 72.8719 38.4092 73.4624 38.8324C74.5547 39.6295 73.8658 41.1843 73.5313 42.4635C73.3935 43.0736 73.2164 43.6837 73.0097 44.2742C72.685 45.0811 71.7993 45.3468 71.0416 45.7503C71.6025 46.0455 72.2421 46.1439 72.1831 47.0492C72.1044 47.5511 71.9764 48.0529 71.819 48.5351C71.4647 49.8242 70.9137 51.6054 70.6283 52.7862M82.8305 41.6369C82.0236 42.621 81.2265 43.7034 80.4294 44.7465C80.9805 47.4428 81.5709 49.9423 82.0925 52.6189C80.5967 52.6976 79.5143 52.6878 78.3531 52.6189C77.9398 50.5229 77.5462 48.417 77.1329 46.321C76.3948 48.2891 75.8634 50.5131 75.2435 52.6189H71.7206C71.9666 51.4479 72.2717 50.2966 72.6456 49.1551C73.0097 47.9939 73.2656 46.8032 73.6297 45.6322C73.9938 44.4611 74.3579 43.2704 74.6137 42.0797C74.8696 40.889 75.3025 39.6098 75.6568 38.488C76.7786 38.3994 77.9004 38.3994 79.0223 38.488C78.6286 40.1018 78.2153 41.5779 77.8414 43.113C78.2645 42.7883 78.6286 42.4045 78.9435 41.9715C79.9866 40.8398 81.0297 39.5803 82.0925 38.4486C83.1257 38.3896 84.1688 38.3896 85.2021 38.4486C84.4936 39.5803 83.6374 40.5938 82.8305 41.6369Z" fill="#374151"/>
</g>
</g>
<defs>
<clipPath id="clip0_374_4016">
<rect width="127.927" height="93.4848" fill="white" transform="translate(0.632812 0.257629)"/>
</clipPath>
<clipPath id="clip1_374_4016">
<rect width="127.927" height="19.3071" fill="white" transform="translate(0.632812 37.3465)"/>
</clipPath>
</defs>
</svg>
