<svg width="108" height="94" viewBox="0 0 108 94" fill="none" xmlns="http://www.w3.org/2000/svg">
<g clip-path="url(#clip0_374_4059)">
<g clip-path="url(#clip1_374_4059)">
<path d="M45.3013 41.0416V38.0895H32.9121V41.0416H37.2223V52.8502H32.9121V55.8024H45.3013V52.8502H40.5877V41.0416H45.3013Z" fill="#374151"/>
<path d="M65.8675 41.1597H60.9473V46.0209C60.9473 46.0209 63.614 45.9422 65.8085 45.9422C68.0029 45.9422 68.554 45.4698 68.554 43.2754C68.554 40.7661 65.8872 41.1498 65.8872 41.1498" fill="#374151"/>
<path d="M51.6089 60.0534H77.1942V33.9466H51.6089V60.0534ZM72.0673 51.5021V55.5957H68.5346V51.7579C68.5346 51.7579 68.5346 48.8058 66.4976 48.8058C64.4606 48.8058 60.9278 48.8845 60.9278 48.8845V55.7039H57.4837V38.0993H67.6784C69.9713 37.9714 71.9394 39.723 72.0673 42.0256C72.0673 42.0256 72.0673 42.0256 72.0673 42.0355C72.087 42.2421 72.087 42.4488 72.0673 42.6554C72.0673 47.4379 69.4104 47.6741 69.4104 47.6741C69.4104 47.6741 72.0673 47.8315 72.0673 51.5119" fill="#374151"/>
<path d="M81.937 38.0993V41.0515H84.3676V52.8601H81.937V55.763H96.9143V50.0162H93.9621V52.8404H87.5855V48.0579H92.2892V45.1549H87.5855V41.0023H93.6964V43.7871H96.9143V38.0993H81.937Z" fill="#374151"/>
<path d="M102.681 60.0534H128.266V33.9466H102.681V60.0534ZM117.737 55.8909C111.311 55.8909 108.408 55.9696 108.408 55.9696V38.178H116.005C116.005 38.178 123.878 37.312 123.878 44.3677V49.2879C123.878 49.2879 124.192 55.8712 117.767 55.8712" fill="#374151"/>
<path d="M0.339844 60.0534H25.9744V33.9466H0.339844V60.0534ZM20.7195 55.7335H16.3307L13.5064 42.9408L10.446 55.8122H6.1359L2.53428 38.178H6.06702L8.48778 51.5808L11.6269 38.178L15.4647 38.2567L18.6038 51.8169L21.0049 38.178H24.3704L20.7195 55.7335Z" fill="#374151"/>
</g>
</g>
<defs>
<clipPath id="clip0_374_4059">
<rect width="127.927" height="93.4848" fill="white" transform="translate(0.339844 0.257629)"/>
</clipPath>
<clipPath id="clip1_374_4059">
<rect width="127.927" height="26.1069" fill="white" transform="translate(0.339844 33.9466)"/>
</clipPath>
</defs>
</svg>
