<svg width="129" height="94" viewBox="0 0 129 94" fill="none" xmlns="http://www.w3.org/2000/svg">
<g clip-path="url(#clip0_374_4002)">
<g clip-path="url(#clip1_374_4002)">
<path fill-rule="evenodd" clip-rule="evenodd" d="M23.2961 79.3601C22.816 77.0774 20.9546 76.4699 18.8678 76.274C12.1175 75.647 10.9223 80.7121 10.9223 82.8381C10.9223 86.4925 11.9804 89.51 18.613 89.51C19.8279 89.51 23.2079 88.256 23.2079 86.2084H32.7308C32.3487 92.2826 22.1498 93.7424 17.7117 93.7424C8.50235 93.7424 0.615613 92.0181 0.997704 82.9655C1.27203 76.4699 7.39527 71.9142 19.6124 72.1886C26.4018 72.3453 32.9169 74.4713 32.9463 79.3895L23.2961 79.3601Z" fill="#374151"/>
<path fill-rule="evenodd" clip-rule="evenodd" d="M118.74 79.3601C118.27 77.0774 116.408 76.4699 114.321 76.274C107.571 75.647 106.376 80.7121 106.376 82.8381C106.376 86.4925 107.434 89.51 114.067 89.51C115.282 89.51 118.652 88.256 118.652 86.2084H128.194C127.802 92.2826 117.613 93.7424 113.165 93.7424C103.956 93.7424 96.0692 92.0181 96.4513 82.9655C96.7256 76.4699 102.849 71.9142 115.066 72.1886C121.855 72.3453 128.371 74.4713 128.4 79.3895L118.74 79.3601Z" fill="#374151"/>
<path fill-rule="evenodd" clip-rule="evenodd" d="M34.5923 72.6H46.9661L57.5275 87.4526H57.6059V72.6H65.5416V93.1741H53.687L42.6162 78.3608H42.528V93.1937H34.5923V72.6Z" fill="#374151"/>
<path fill-rule="evenodd" clip-rule="evenodd" d="M67.9912 72.6H83.0103C90.2406 72.6 94.4828 74.6183 94.4828 77.675C94.4828 79.4777 92.7095 81.7114 88.7417 82.3678V82.4266C93.5129 82.7009 95.2764 85.7283 95.2764 87.5407C95.2764 91.1755 91.1322 93.1937 83.0593 93.1937H67.9912V72.6ZM76.6813 80.5945H79.1796C83.0201 80.5945 85.0579 80.2908 85.0579 78.6939C85.0579 77.0969 83.363 76.4111 79.9144 76.4111H76.6911V80.5945H76.6813ZM76.6813 88.8732H79.1796C83.8039 88.8732 85.4988 88.3833 85.4988 86.7864C85.4988 85.1894 83.363 84.5134 79.9046 84.5134H76.6911V88.8732H76.6813Z" fill="#374151"/>
<path fill-rule="evenodd" clip-rule="evenodd" d="M107.424 41.0237L72.0073 64.7133L83.9403 36.3505L89.5933 23.1537C91.8074 18.9213 96.1476 16.2172 100.919 16.0899C105.406 16.0605 109.589 18.353 111.97 22.1543C114.576 26.0732 114.723 32.4218 112.117 36.3603C110.892 38.2217 109.295 39.8089 107.434 41.0335" fill="#374151"/>
<path fill-rule="evenodd" clip-rule="evenodd" d="M89.7898 18.6567L72.2724 60.0694L71.5278 55.5529L66.2275 21.6057C65.9728 19.6462 66.8644 17.7162 68.5201 16.6287L71.0282 15.1297C71.1751 14.6105 70.4403 14.4341 70.0974 14.2676L65.1988 14.2186C64.562 7.17442 69.7545 0.953206 76.7987 0.306592C78.8659 0.120445 80.9527 0.433955 82.8632 1.23732C87.6148 3.33392 90.7205 7.98759 90.8381 13.1801C90.8381 15.0514 90.4854 16.9128 89.7898 18.6469" fill="#374151"/>
<path fill-rule="evenodd" clip-rule="evenodd" d="M56.146 60.2164L38.903 18.7057C37.0317 14.0423 37.8351 8.73219 40.9996 4.83291C44.2131 1.06099 49.3076 -0.526156 54.0984 0.737682C58.5463 2.05051 61.9949 5.57749 63.2 10.0548C63.6017 11.7791 63.7095 13.5524 63.5135 15.3159L56.146 60.2164Z" fill="#374151"/>
<path fill-rule="evenodd" clip-rule="evenodd" d="M19.2891 39.5247C15.8209 36.6052 14.0868 32.1083 14.704 27.6211C15.38 22.6246 18.7796 18.4118 23.5215 16.6875C28.1066 15.1983 33.1423 16.423 36.5321 19.852C37.8352 21.1648 38.8639 22.7323 39.5595 24.4469L56.2147 64.7819L19.2891 39.5247Z" fill="#374151"/>
<path fill-rule="evenodd" clip-rule="evenodd" d="M15.4974 68.9947C11.0298 68.5636 7.11097 65.8204 5.17113 61.7643C3.00595 57.1695 3.5154 51.7614 6.50354 47.6466C9.71702 43.7963 14.3413 41.8565 19.0537 42.8166C20.8466 43.1497 22.5611 43.8649 24.0699 44.8936L59.9276 68.9947H15.4974Z" fill="#374151"/>
<path fill-rule="evenodd" clip-rule="evenodd" d="M112.852 68.9947C117.329 68.5734 121.258 65.8204 123.178 61.7546C125.344 57.1597 124.834 51.7516 121.856 47.6466C118.642 43.7963 114.018 41.8565 109.296 42.8166C107.503 43.1595 105.788 43.8649 104.28 44.8936L68.4219 68.9947H112.852Z" fill="#374151"/>
</g>
</g>
<defs>
<clipPath id="clip0_374_4002">
<rect width="127.927" height="93.4848" fill="white" transform="translate(0.706055 0.257629)"/>
</clipPath>
<clipPath id="clip1_374_4002">
<rect width="127.363" height="93.4848" fill="white" transform="translate(0.987793 0.257629)"/>
</clipPath>
</defs>
</svg>
