<svg width="129" height="94" viewBox="0 0 129 94" fill="none" xmlns="http://www.w3.org/2000/svg">
<g clip-path="url(#clip0_374_4033)">
<g clip-path="url(#clip1_374_4033)">
<path fill-rule="evenodd" clip-rule="evenodd" d="M126.828 37.0316C126.907 34.5715 124.969 32.505 122.508 32.4262H122.302C120.531 32.4262 118.671 33.4103 118.956 35.8704C119.133 37.4351 121.574 37.996 122.892 38.4191C126.828 39.6492 128.383 41.1449 128.383 44.0577C128.383 46.9705 125.962 48.978 121.642 48.978C119.527 48.978 117.175 48.5548 115.738 47.2559L115.236 43.0343H115.64C116.27 46.7934 117.893 48.2694 121.79 48.3678C124.28 48.4269 125.018 47.0099 125.008 45.2583C124.998 43.5066 123.109 42.7489 120.875 42.0109C117.677 41.0268 115.709 39.7673 115.709 36.7069C115.709 33.6465 118.415 31.6685 122.42 31.6685C124.073 31.7177 125.697 32.1704 127.143 32.9871V36.9922L126.828 37.0316Z" fill="#374151"/>
<path fill-rule="evenodd" clip-rule="evenodd" d="M112.845 33.302C113.544 32.8297 114.203 32.3082 114.813 31.7177C115.492 31.147 115.925 30.3401 116.014 29.4544C116.014 29.2871 115.964 29.11 115.866 28.9722C115.758 28.8443 115.59 28.7754 115.423 28.7853C115.217 28.8246 115 28.8443 114.793 28.8541C114.213 28.8738 113.642 28.6376 113.239 28.2145C112.835 27.7717 112.628 27.1813 112.668 26.581C112.628 25.9217 112.865 25.282 113.307 24.7999C113.78 24.3275 114.429 24.0717 115.098 24.111C115.896 24.0913 116.663 24.4259 117.194 25.0163C117.726 25.6166 118.021 26.3842 118.051 27.1813C118.021 28.7853 117.362 30.3105 116.21 31.4225C115.295 32.3377 114.252 33.1151 113.111 33.7252L112.845 33.302Z" fill="#374151"/>
<path fill-rule="evenodd" clip-rule="evenodd" d="M76.4253 56.7913V62.2627C76.4253 63.9159 77.1633 64.4276 77.8817 64.4276C78.3442 64.3981 78.787 64.2996 79.2101 64.1127L79.3184 64.4571C78.5213 64.959 77.6061 65.2345 76.6614 65.264C75.884 65.264 73.9651 64.9885 73.9651 63.1089V56.7913H72.4497V56.1812H74.2308L75.9136 53.5637H76.4253V56.1812H79.1216V56.8012H76.4253V56.7913Z" fill="#374151"/>
<path fill-rule="evenodd" clip-rule="evenodd" d="M71.0032 58.7791C71.0524 57.4507 70.0191 56.3387 68.6907 56.2895H68.671H68.5529C67.6673 56.1812 66.8505 56.811 66.7422 57.7065C66.7422 57.7065 66.7422 57.7164 66.7422 57.7262C66.7226 57.864 66.7226 58.0116 66.7422 58.1493C66.8407 58.9956 68.1691 59.3007 68.8875 59.527C71.013 60.1962 71.8396 61.0031 71.8396 62.5776C71.8396 64.1521 70.5308 65.2542 68.1986 65.2542C67.0571 65.3132 65.9353 64.959 65.0202 64.2701L64.7446 61.997H64.9611C65.3055 64.0241 66.1813 64.8212 68.2872 64.8802C69.0941 65.0279 69.8617 64.4965 70.0191 63.6895C70.0388 63.5223 70.0388 63.3648 70.0191 63.1975C70.0191 62.2135 69.0351 61.8494 67.7853 61.4459C66.0534 60.8948 64.9906 60.2257 64.9906 58.5823C64.9906 56.939 66.4569 55.8565 68.6119 55.8565C69.5074 55.886 70.3832 56.132 71.1705 56.565V58.7299L71.0032 58.7791Z" fill="#374151"/>
<path fill-rule="evenodd" clip-rule="evenodd" d="M109.175 31.9835C107.856 31.9835 106.222 32.7117 104.53 34.847V31.9835L98.8223 32.8199V33.2922C98.8223 33.2922 100.082 33.1446 100.594 33.1053V46.6852C100.594 47.2461 100.505 47.9644 99.5505 47.9644H98.6255V48.5942H106.764V47.9743H105.78C105.16 48.053 104.599 47.6102 104.52 46.9902C104.5 46.882 104.5 46.7836 104.52 46.6753V37.1891C104.736 35.1029 106.045 33.9024 106.645 33.8925C107.797 33.8925 107.757 34.7093 108.781 35.1915C109.637 35.6146 110.67 35.2702 111.093 34.4141C111.192 34.2074 111.251 33.9811 111.261 33.7449C111.261 32.7609 110.592 32.013 109.165 32.013" fill="#374151"/>
<path fill-rule="evenodd" clip-rule="evenodd" d="M32.6648 32.5936C37.152 32.5936 36.9651 38.4979 36.9651 38.5569C37.0044 38.9309 36.7289 39.2753 36.3549 39.3146C36.3549 39.3146 36.3451 39.3146 36.3353 39.3146C36.2762 39.3146 36.227 39.3146 36.168 39.3146H29.4764C29.073 39.3343 28.7187 39.0194 28.6892 38.616V38.4684C28.7679 36.5003 29.2895 32.564 32.6254 32.564M29.4075 40.0724H40.3994C40.5076 39.0883 40.4584 38.0944 40.2518 37.1202C40.055 36.0869 39.6121 35.1029 38.9627 34.2763C37.8802 32.9675 35.9908 31.9835 32.8124 31.9835C27.0557 31.9835 24.1035 35.654 24.1035 40.6529C24.1035 45.6519 26.7506 49.1256 32.8911 49.1256C36.9651 49.1256 39.1004 47.2166 40.1927 44.5203L39.7499 44.3038C38.3132 47.1575 36.5419 48.24 33.7177 48.24C29.565 48.24 28.699 44.3038 28.6597 40.9974C28.6597 40.9678 28.6597 40.9285 28.6597 40.899C28.6301 40.4857 28.9352 40.1117 29.3583 40.0822H29.4666" fill="#374151"/>
<path fill-rule="evenodd" clip-rule="evenodd" d="M59.2834 56.1812C61.7731 56.1812 61.6845 59.3695 61.6845 59.3794C61.6943 59.5959 61.5369 59.773 61.3302 59.8025H57.5613C57.335 59.8124 57.1382 59.6352 57.1185 59.4089V59.34C57.1185 58.2477 57.4432 56.2009 59.3129 56.1911M57.5318 60.3438H63.6034C63.6428 59.8025 63.6034 59.2613 63.4656 58.7299C63.3574 58.1592 63.1212 57.6179 62.7571 57.1554C61.8912 56.2206 60.6316 55.7286 59.3621 55.8466C56.8922 55.64 54.7273 57.4802 54.5206 59.9501C54.5206 59.9501 54.5206 59.9501 54.5206 59.96C54.5009 60.1961 54.5009 60.4422 54.5206 60.6783C54.5206 63.5616 55.977 65.3722 59.3818 65.3722C61.1728 65.5494 62.8555 64.4866 63.4656 62.794L63.1507 62.6759C62.6292 64.0536 61.281 64.9393 59.805 64.8605C57.5121 64.8605 57.0988 62.6956 57.0791 60.8456C57.0595 60.6094 57.2366 60.4028 57.4728 60.3831" fill="#374151"/>
<path fill-rule="evenodd" clip-rule="evenodd" d="M89.602 32.5837C94.0794 32.5837 93.9023 38.5372 93.9023 38.5569C93.9318 38.9407 93.6464 39.2753 93.2627 39.3146C93.2036 39.3146 93.1544 39.3146 93.0954 39.3146H86.4038C85.9905 39.3343 85.6461 39.0194 85.6166 38.6061V38.5077C85.7052 36.5396 86.2267 32.6034 89.5528 32.6034M86.3251 40.1117H97.3268C97.435 39.1277 97.376 38.1338 97.1693 37.1596C97.002 36.1362 96.5789 35.1619 95.9393 34.3353C94.7978 32.9675 92.9281 31.9835 89.7496 31.9835C84.0027 31.9835 81.0112 35.7032 81.0112 40.7021C81.0112 45.7011 83.6485 49.1748 89.789 49.1748C93.8728 49.1748 96.0082 47.2658 97.1005 44.5695L96.6675 44.353C95.2209 47.2067 93.4496 48.2892 90.6254 48.2892C86.4727 48.2892 85.6067 44.353 85.5674 41.0466C85.5674 41.017 85.5674 40.9777 85.5674 40.9482C85.528 40.5349 85.8331 40.1708 86.2464 40.1314H86.2661H86.3743" fill="#374151"/>
<path fill-rule="evenodd" clip-rule="evenodd" d="M9.75608 36.0377H8.0832C7.60101 36.0967 7.15819 35.7425 7.09914 35.2603C7.09914 35.2603 7.09914 35.2603 7.09914 35.2504V26.2857C7.78798 26.1775 8.4965 26.1381 9.19517 26.1578C11.8127 26.1578 14.8141 26.9943 14.8141 31.4914C14.8141 34.8371 13.0428 36.0377 9.7364 36.0377M13.83 36.6084C16.92 36.1262 19.1144 34.3943 19.0947 31.1765C19.0947 28.1259 17.4022 25.5182 11.2223 25.5182H0.486328V26.0791H1.65735C2.26746 26.0496 2.78901 26.5121 2.81853 27.1222C2.81853 27.2009 2.81853 27.2698 2.81853 27.3485V46.7442C2.91693 47.3936 2.47411 47.9939 1.83448 48.1021H0.486328V48.6335H9.55927V48.1021H8.46697C7.80766 48.1809 7.20739 47.7184 7.11883 47.059C7.09914 46.9508 7.09914 46.8327 7.11883 46.7245V37.868C7.11883 37.868 7.11883 37.8385 7.11883 37.8188C7.11883 37.2481 7.34516 36.8348 8.10288 36.8348H9.34278C11.3109 36.8348 14.7157 38.114 15.7194 43.5361C17.0676 50.8673 23.395 52.4516 29.6142 52.1859V51.8514C17.1266 50.9756 23.5426 37.4842 13.8694 36.5986" fill="#374151"/>
<path fill-rule="evenodd" clip-rule="evenodd" d="M41.8752 55.0299C42.5148 55.1086 43.1053 54.6559 43.184 54.0163C43.184 54.0163 43.184 54.0065 43.184 53.9966V53.8884C43.2135 53.2291 42.7018 52.678 42.0425 52.6485C42.0326 52.6485 42.0228 52.6485 42.013 52.6485H41.8752C41.2159 52.5993 40.6254 53.0913 40.5664 53.7506V53.849C40.5664 54.4985 41.088 55.0397 41.7374 55.0397C41.7669 55.0397 41.7866 55.0397 41.8162 55.0397H41.9244" fill="#374151"/>
<path fill-rule="evenodd" clip-rule="evenodd" d="M43.5189 64.6637C43.2631 64.6539 43.0564 64.4374 43.0662 64.1717C43.0662 64.1717 43.0662 64.1717 43.0662 64.1619V56.2304L39.5925 56.8208L39.937 57.2046L40.5372 57.1456V64.1422C40.5668 64.398 40.3798 64.6342 40.1239 64.6637H39.4941V65.0869H44.3357V64.6637H43.5287H43.5189Z" fill="#374151"/>
<path fill-rule="evenodd" clip-rule="evenodd" d="M53.3201 44.6481C53.3201 46.8918 50.9486 47.7381 49.7775 47.6003C47.7209 47.3838 46.9041 45.7601 46.9041 43.8904C46.7467 42.4439 47.6815 41.1056 49.0986 40.771C50.5057 40.2298 52.5034 39.6098 53.3103 39.1571V44.6481H53.3201ZM59.5393 47.4035C59.1949 47.7282 58.7521 47.9349 58.2797 47.9742C57.8172 48.0136 57.4039 47.6889 57.3449 47.2263C57.2957 46.3604 57.276 36.6675 57.276 36.6675C57.276 34.6994 56.0263 31.9736 50.4861 31.9736C46.2842 31.9736 43.4501 33.9417 43.3222 35.8409C43.1844 36.7069 43.7847 37.5236 44.6506 37.6614C44.7589 37.6712 44.8573 37.6712 44.9655 37.6614H45.2017C45.2804 37.6515 45.3493 37.6319 45.428 37.6023L45.5855 37.5531C46.2054 37.2186 46.6286 36.6183 46.7467 35.9196C47.1206 33.6366 47.9472 32.4459 50.3778 32.5246C53.2217 32.6034 53.33 34.1385 53.33 36.7364V37.0906C53.33 37.3957 53.143 38.5077 51.2339 39.2851C49.5217 39.6688 47.7996 39.9739 46.0578 40.1806C44.0209 40.4954 42.5448 42.3061 42.6629 44.3628C42.6629 46.8623 44.5522 48.9386 47.9767 49.037C50.6927 49.1157 52.2377 47.6397 53.33 46.9213C53.6449 48.0333 54.5797 48.8697 55.7212 49.0468C57.1973 49.2535 58.693 48.8008 59.805 47.8168L59.5393 47.4035Z" fill="#374151"/>
<path fill-rule="evenodd" clip-rule="evenodd" d="M73.7095 43.7133C73.7587 44.3136 73.6701 44.9138 73.4438 45.4649C72.7451 47.0886 71.2494 47.5511 69.5076 47.5511C66.2406 47.5511 65.3352 44.0479 65.3352 40.2199C65.3352 35.9688 66.3193 33.0167 69.8127 33.0167C71.3478 32.9478 72.7845 33.8039 73.4438 35.2013C73.6997 35.8803 73.7981 36.5986 73.739 37.317L73.7095 43.7133ZM79.0431 47.8955C77.9803 47.8955 77.6457 47.374 77.6457 46.4883V24.2488L71.0919 24.9573V25.5576L73.7095 25.4001V34.2566C72.8435 32.8986 71.3773 32.0326 69.7733 31.9441C67.323 31.7768 64.9023 32.6132 63.0818 34.2664C61.3302 35.959 60.3953 38.3305 60.5134 40.7611C60.5134 45.5731 63.0522 48.9386 67.9725 48.9386C70.0882 48.9386 72.135 48.1612 73.7095 46.7442V48.5155H79.6138V47.8955H79.0431Z" fill="#374151"/>
<path fill-rule="evenodd" clip-rule="evenodd" d="M34.9281 62.3709C35.0659 63.4534 34.3081 64.4374 33.2355 64.5752C32.9994 64.6047 32.7632 64.5949 32.5369 64.5457C30.6868 64.5457 30.1751 62.5776 30.1751 60.393C30.1751 57.9919 30.7262 56.319 32.7041 56.319C33.5898 56.26 34.4262 56.7618 34.8002 57.5687C34.9281 57.9427 34.9773 58.356 34.9281 58.7496V62.3709ZM37.9491 64.7425C37.3489 64.7425 37.152 64.4473 37.152 63.9454V51.3495L33.4422 51.7432V52.0876L34.9281 51.999V56.9882C34.4361 56.2206 33.6095 55.7286 32.7041 55.6794C31.3166 55.5908 29.9488 56.0631 28.9155 56.998C27.9118 57.9624 27.3804 59.3105 27.4493 60.698C27.4493 63.4238 28.8959 65.3231 31.6807 65.3231C32.8813 65.3231 34.0424 64.8704 34.9281 64.0536V65.0377H38.2542V64.6834H37.9491V64.7425Z" fill="#374151"/>
<path fill-rule="evenodd" clip-rule="evenodd" d="M49.2951 61.5049C48.2028 61.5049 47.5829 60.6193 47.514 59.0448C47.4451 57.4703 48.3406 56.6339 49.2164 56.6339C50.0135 56.6339 50.9188 57.1751 50.8893 59.0448C50.8893 60.5602 50.4071 61.4951 49.2755 61.5049M49.3935 65.1262C51.2239 65.1262 52.2276 65.5395 52.1686 66.8877C52.1784 68.1374 51.1747 69.1608 49.9249 69.1805C49.8265 69.1805 49.738 69.1805 49.6395 69.1805C47.9863 69.1805 46.9728 68.3047 46.9334 66.8188C46.9137 66.3366 47.1302 65.8642 47.5238 65.5789C48.0749 65.2049 48.7539 65.0573 49.4132 65.1459M52.3654 55.8368C52.9952 55.8368 52.9755 56.2894 53.5364 56.5551C54.0087 56.7716 54.5696 56.5847 54.8156 56.132C54.8747 56.0139 54.9042 55.886 54.9141 55.7482C54.9141 55.1971 54.5401 54.7642 53.7529 54.7642C52.7196 54.8626 51.7848 55.4333 51.2239 56.3091C50.6334 56.0926 50.0135 55.9844 49.3837 55.9745C46.4906 55.9745 45.2999 57.1259 45.3196 59.0251C45.3097 60.3929 46.2839 61.5639 47.6222 61.81C46.5398 61.9576 45.6541 62.5874 45.6541 63.3352C45.6541 64.4079 47.0712 64.8999 47.8879 64.9589C47.1007 65.0376 45.3688 65.077 45.2507 66.927C45.1326 68.777 47.0909 69.7906 49.2755 69.8103C52.8574 69.8103 54.2547 68.2358 54.2547 66.1693C54.2547 64.1028 52.5327 63.4632 50.5842 63.4632H48.8425C47.5534 63.4632 47.1597 63.0302 47.1597 62.7153C47.1597 62.1937 47.7403 61.9773 47.9863 61.8985C48.2324 61.8198 48.9704 61.9576 49.1869 61.9576C50.9483 61.9576 53.1231 61.2392 53.1231 59.0054C53.1132 58.5823 53.0148 58.1591 52.8377 57.7754L52.7491 57.6081C52.6803 57.4998 52.6015 57.4014 52.5228 57.303L52.4146 57.1849L52.0701 56.8503C51.9029 56.7323 51.7356 56.6142 51.5584 56.5059C51.7159 56.1714 52.0111 55.9253 52.3654 55.8269" fill="#374151"/>
</g>
</g>
<defs>
<clipPath id="clip0_374_4033">
<rect width="127.927" height="93.4848" fill="white" transform="translate(0.486328 0.257629)"/>
</clipPath>
<clipPath id="clip1_374_4033">
<rect width="127.927" height="45.778" fill="white" transform="translate(0.486328 24.111)"/>
</clipPath>
</defs>
</svg>
