<svg width="129" height="94" viewBox="0 0 129 94" fill="none" xmlns="http://www.w3.org/2000/svg">
<g clip-path="url(#clip0_374_4027)">
<g clip-path="url(#clip1_374_4027)">
<path d="M0.55957 67.9209H42.4014V26.0791H0.55957V67.9209ZM20.2603 36.1558C19.6009 34.0499 18.8826 33.3709 15.1727 33.3709H12.3091C11.4432 33.3709 11.2562 33.5579 11.2562 34.3353V40.3085H12.6535C15.6057 40.3085 16.2355 39.7672 16.5897 37.7893H17.3081V44.4612H16.5897C16.1961 42.2372 15.0842 41.6763 12.6535 41.6763H11.2464V47.9053C11.2464 49.8833 11.7777 50.1096 14.0312 50.1982V50.9165H5.09604V50.1785C6.9559 50.0998 7.48728 49.8734 7.48728 47.8857V35.0044C7.48728 33.0265 6.9559 32.8002 5.15509 32.7214V32.0031H20.9491L21.0475 36.1656H20.2603V36.1558ZM38.2093 36.1558C37.6091 34.1188 36.7234 33.3709 34.7258 33.3709H32.3936V47.8857C32.3936 49.8636 32.9053 50.0899 35.0505 50.1785V50.9165H25.9382V50.1982C28.0638 50.1194 28.5952 49.8931 28.5952 47.9053V33.3906H26.2728C24.2949 33.3906 23.3895 34.1286 22.7893 36.1755H21.8446L22.2382 32.0129H38.8096L39.1639 36.1755H38.2093V36.1558Z" fill="#374151"/>
<path d="M51.612 43.487C51.612 44.471 51.8875 44.5498 52.9798 44.5891V44.9434H48.6303V44.5891C49.5357 44.5498 49.8112 44.4317 49.8112 43.487V37.2186C49.8112 36.2345 49.5357 36.1558 48.6795 36.1164V35.7622H56.365L56.4043 37.7992H56.0107C55.6958 36.7758 55.3416 36.4707 53.5407 36.4707H52.1335C51.7006 36.4707 51.6218 36.5494 51.6218 36.943V39.846H53.1963C54.6429 39.846 54.9578 39.5705 55.1152 38.6258H55.4695V41.883H55.1152C54.9184 40.7808 54.3673 40.5151 53.1963 40.5151H51.6218V43.4968L51.612 43.487ZM60.6653 43.487C60.6653 44.471 60.9408 44.5498 62.0331 44.5891V44.9434H57.4966V44.5891C58.5988 44.5498 58.8645 44.4317 58.8645 43.487V37.2186C58.8645 36.2345 58.6283 36.1558 57.4966 36.1164V35.7622H62.0429V36.1164C60.9408 36.1558 60.6751 36.2739 60.6751 37.2186V43.487H60.6653ZM71.5193 37.4548C71.5193 36.5494 71.2832 36.1952 70.2696 36.0869V35.7327H73.5268V36.0869C72.5034 36.205 72.2771 36.5593 72.2771 37.4548V45.1402H71.8047L65.5363 37.8877V43.2213C65.5363 44.1266 65.7725 44.4809 66.7861 44.5891V44.9434H63.5289V44.5891C64.5523 44.471 64.7786 44.1168 64.7786 43.2213V37.0316C64.5424 36.5297 64.0701 36.1853 63.5289 36.0869V35.7327H66.0382L71.5292 42.0798V37.4548H71.5193ZM76.4199 41.6468L77.7877 38.0058L79.1556 41.6468H76.4199ZM83.0032 44.9434V44.5891C82.2947 44.5891 82.1372 44.3136 81.783 43.4575L78.5258 35.5359H78.0928L74.7273 43.733C74.5601 44.225 74.1074 44.5694 73.5957 44.599V44.9532H76.538V44.599C75.9082 44.599 75.5933 44.4415 75.5933 44.0085C75.7114 43.4279 75.8787 42.867 76.105 42.3258H79.4409C79.687 42.867 79.8641 43.4279 79.992 44.0085C79.992 44.4415 79.6378 44.599 79.008 44.599V44.9532H83.0032V44.9434ZM91.9384 37.4351C91.9384 36.5297 91.7022 36.1755 90.6886 36.0672V35.713H93.9458V36.0672C92.9224 36.1853 92.6961 36.5396 92.6961 37.4351V45.1205H92.2238L85.9652 37.8681V43.2016C85.9652 44.1069 86.2014 44.4612 87.2149 44.5694V44.9237H83.9577V44.5694C84.9811 44.4514 85.2075 44.0971 85.2075 43.2016V37.0119C84.9713 36.5101 84.499 36.1656 83.9577 36.0672V35.713H86.4671L91.9581 42.0601V37.4351H91.9384ZM103.57 42.7686C102.792 44.3037 101.179 45.2484 99.4565 45.1599C96.4749 45.1599 94.674 43.2016 94.674 40.2593C94.7036 37.6122 96.8685 35.4867 99.5156 35.5162H99.5353C100.401 35.6146 101.257 35.8015 102.084 36.0672C102.359 36.0672 102.438 35.9098 102.674 35.5162H103.147L103.344 38.5766H102.95C102.586 37.1595 101.316 36.146 99.8502 36.1066C97.6951 36.1066 96.7504 38.4585 96.7504 40.2199C96.7504 42.6899 97.8033 44.3726 100.126 44.3726C101.444 44.3234 102.645 43.5952 103.304 42.4537L103.58 42.7686H103.57ZM107.998 43.4771C107.998 44.4612 108.274 44.5399 109.366 44.5793V44.9335H104.829V44.5793C105.932 44.5399 106.197 44.4218 106.197 43.4771V37.2087C106.197 36.2247 105.922 36.146 104.829 36.1066V35.7523H109.376V36.1066C108.274 36.146 108.008 36.2641 108.008 37.2087V43.4771H107.998ZM113.125 41.637L114.493 37.996L115.861 41.637H113.125ZM119.708 44.9335V44.5793C119 44.5793 118.842 44.3037 118.488 43.4476L115.231 35.526H114.798L111.432 43.7232C111.265 44.2152 110.812 44.5596 110.301 44.5891V44.9434H113.243V44.5891C112.613 44.5891 112.298 44.4317 112.298 43.9987C112.416 43.4181 112.584 42.8572 112.81 42.316H116.146C116.382 42.8572 116.569 43.4181 116.697 43.9987C116.697 44.4317 116.343 44.5891 115.713 44.5891V44.9434H119.708V44.9335ZM120.535 44.9335V44.5793C121.401 44.5399 121.667 44.4218 121.667 43.4771V37.2087C121.667 36.2247 121.391 36.146 120.535 36.1066V35.7523H124.766V36.1066C123.743 36.146 123.517 36.2641 123.517 37.2087V43.6739C123.517 44.225 123.674 44.4218 124.697 44.4218C126.341 44.4218 127.325 44.1069 128.102 42.5029H128.456L127.827 44.9729H120.535V44.9335ZM50.6083 59.4384C51.6612 59.3991 51.8974 59.281 51.8974 58.3363V51.2807H50.7657C49.7128 51.2807 49.2798 51.7136 48.9649 52.9634H48.5713L48.8075 50.6115H56.8865L57.1227 52.9634H56.7291C56.4142 51.7038 56.0205 51.2807 54.9283 51.2807H53.7966V58.3363C53.7966 59.3203 54.0721 59.3991 55.0955 59.4384V59.7927H50.6673V59.4384H50.6083ZM61.236 58.3363C61.236 59.3203 61.5115 59.3991 62.6038 59.4384V59.7927H58.0575V59.4384C59.1597 59.3991 59.4254 59.281 59.4254 58.3363V52.0679C59.4254 51.0838 59.1498 51.0051 58.0575 50.9658V50.6115H62.6137V50.9658C61.5116 51.0051 61.2459 51.1232 61.2459 52.0679V58.3363H61.236ZM72.2475 50.5721H75.426V50.9264C74.5601 50.9658 74.2944 51.0838 74.2944 52.0285V58.2969C74.2944 59.281 74.5699 59.3597 75.426 59.3991V59.7533H71.2635V59.3991C72.1688 59.3597 72.4444 59.2416 72.4444 58.2969V51.8317H72.405L69.3446 59.8714H68.9116L65.8906 51.8317H65.8512V58.0214C65.8512 58.9267 66.0874 59.281 67.101 59.3892V59.7435H63.8437V59.3892C64.8672 59.2711 65.0935 58.9169 65.0935 58.0214V51.753C65.0935 51.1232 64.818 50.887 63.8437 50.887V50.5328H67.1797L69.6103 56.9193L72.2377 50.5721H72.2475ZM76.7151 59.7829V59.4286C77.5811 59.3892 77.8468 59.2711 77.8468 58.3265V52.0581C77.8468 51.074 77.5712 50.9953 76.7151 50.9559V50.6017H84.4006L84.4399 52.6386H84.0463C83.7314 51.6152 83.3771 51.3102 81.5763 51.3102H80.1691C79.7362 51.3102 79.6574 51.3889 79.6574 51.7825V54.6855H81.2221C82.6686 54.6855 82.9835 54.4099 83.141 53.4652H83.4952V56.7225H83.141C82.9442 55.6203 82.3931 55.394 81.2221 55.394H79.6574V58.5725C79.6574 59.1235 79.8149 59.3203 81.4582 59.3203C83.1016 59.3203 84.0857 59.0055 84.8631 57.4014H85.2173L84.5875 59.8714H76.7053V59.7927H76.7151V59.7829ZM86.4375 56.8602H86.7918C87.1657 58.1985 88.3072 59.1924 89.6948 59.3696C90.4918 59.4384 91.1905 58.8578 91.2594 58.0608V57.8443C91.2594 55.7286 86.4769 55.3349 86.4769 52.7075C86.5851 51.3495 87.7365 50.3163 89.1043 50.3556C89.9408 50.4344 90.7674 50.5918 91.5743 50.828C91.8301 50.828 92.0368 50.6115 92.0466 50.3556H92.4009V53.298H92.0466C91.8105 52.0285 90.7477 51.0838 89.4586 50.9854C88.7599 50.9067 88.14 51.3987 88.0514 52.0974V52.2844C88.0514 54.1639 92.8339 54.2033 92.8339 57.4605C92.7945 58.907 91.5841 60.0584 90.1376 60.019H89.9703C88.3663 60.019 87.9333 59.468 87.3035 59.468C87.0673 59.468 86.9099 59.6254 86.8312 59.9403H86.3588L86.4375 56.8799V56.8602Z" fill="#374151"/>
</g>
</g>
<defs>
<clipPath id="clip0_374_4027">
<rect width="127.927" height="93.4848" fill="white" transform="translate(0.55957 0.257629)"/>
</clipPath>
<clipPath id="clip1_374_4027">
<rect width="127.927" height="41.8418" fill="white" transform="translate(0.55957 26.0791)"/>
</clipPath>
</defs>
</svg>
