<svg width="129" height="94" viewBox="0 0 129 94" fill="none" xmlns="http://www.w3.org/2000/svg">
<g clip-path="url(#clip0_374_4052)">
<g clip-path="url(#clip1_374_4052)">
<path fill-rule="evenodd" clip-rule="evenodd" d="M112.27 51.7923C110.007 53.7211 107.114 54.774 104.142 54.7445C97.9621 54.7445 93.957 50.3655 93.957 43.5854C93.957 39.7082 94.764 37.1398 96.6533 35.034C98.3459 33.0855 100.845 32.0129 103.424 32.131C105.716 32.0621 107.95 32.8986 109.643 34.4435C111.611 36.4608 112.506 39.3638 112.506 43.8707V45.1795H100.068V45.3468C100.068 48.6729 101.702 50.5721 104.614 50.5721C106.632 50.5328 108.58 49.775 110.086 48.4269L112.27 51.7923ZM106.691 41.0564V40.8202C106.809 39.6984 106.573 38.5667 106.021 37.5827C105.49 36.7364 104.536 36.2542 103.542 36.3231C101.396 36.3231 100.176 38.0058 100.176 40.9973V41.076L106.691 41.0564Z" fill="#374151"/>
<path fill-rule="evenodd" clip-rule="evenodd" d="M126.785 36.5101H123.164V47.3346C123.164 50.0703 123.666 50.7886 125.604 50.7886C126.293 50.7493 126.972 50.6017 127.622 50.3753L128.34 53.7408C126.893 54.3804 125.329 54.715 123.744 54.7248C120.891 54.7248 118.608 53.4652 117.939 51.5759C117.584 50.5032 117.456 49.3618 117.565 48.2399V36.5002H115.419V32.6329H117.565C117.525 30.9305 117.594 29.2281 117.771 27.5355L123.498 26.1086C123.282 28.2736 123.164 30.4581 123.164 32.6329H128.222L126.785 36.5101Z" fill="#374151"/>
<path fill-rule="evenodd" clip-rule="evenodd" d="M85.4055 24.9278L85.5334 36.884C85.5334 38.8521 85.7794 42.6505 85.9959 44.9335C85.1497 42.0896 84.077 39.3047 82.7978 36.6281L77.169 24.9179H70.6644V38.2124L55.825 6.37842L0.413086 32.2196L26.2444 87.6314L81.6563 61.7903L76.2932 50.2966L76.185 41.6861C76.185 39.2457 76.0964 35.7818 75.8897 33.3906C76.4408 35.2013 78.2121 39.2949 79.8259 42.9949L84.8446 54.1934H90.9851V24.9278H85.4055ZM53.6305 53.8884H48.9071V47.5904H52.1938C56.6319 47.5904 60.4205 45.1598 60.4205 39.5901C60.4205 34.4731 57.0452 31.5898 52.2725 31.5898H48.11V45.8684L42.7272 53.8884H11.8281L26.9824 31.5996H13.127L17.3388 25.3017H40.1982L25.1423 47.5904H40.6804V25.3017H53.6305C61.5226 25.0163 68.1551 31.1765 68.4405 39.0686C68.7258 46.9607 62.5657 53.5932 54.6736 53.8785C54.5358 53.8785 54.3882 53.8785 54.2505 53.8785H53.6305" fill="#374151"/>
</g>
</g>
<defs>
<clipPath id="clip0_374_4052">
<rect width="127.927" height="93.4848" fill="white" transform="translate(0.413086 0.257629)"/>
</clipPath>
<clipPath id="clip1_374_4052">
<rect width="127.927" height="81.2432" fill="white" transform="translate(0.413086 6.37842)"/>
</clipPath>
</defs>
</svg>
