<svg width="86" height="87" viewBox="0 0 86 87" fill="none" xmlns="http://www.w3.org/2000/svg">
<g id="Frame 1410087040">
<rect y="0.5" width="86" height="86" rx="43" fill="#338CFF" fill-opacity="0.1"/>
<path id="Vector" d="M27.875 30C26.5821 30 25.3421 30.5136 24.4279 31.4279C23.5136 32.3421 23 33.5821 23 34.875V38.3571H59.2143V56.4643C59.2143 56.8337 59.361 57.188 59.6222 57.4492C59.8835 57.7104 60.2377 57.8571 60.6071 57.8571C60.9766 57.8571 61.3308 57.7104 61.592 57.4492C61.8533 57.188 62 56.8337 62 56.4643V34.875C62 33.5821 61.4864 32.3421 60.5721 31.4279C59.6579 30.5136 58.4179 30 57.125 30H27.875ZM42.5 41.1429H23V52.9821C23 55.6731 25.184 57.8571 27.875 57.8571H37.625C38.9179 57.8571 40.1579 57.3435 41.0721 56.4293C41.9864 55.515 42.5 54.2751 42.5 52.9821V41.1429ZM28.5714 46.7143C28.5714 46.3449 28.7182 45.9906 28.9794 45.7294C29.2406 45.4682 29.5949 45.3214 29.9643 45.3214H35.5357C35.9051 45.3214 36.2594 45.4682 36.5206 45.7294C36.7818 45.9906 36.9286 46.3449 36.9286 46.7143C36.9286 47.0837 36.7818 47.438 36.5206 47.6992C36.2594 47.9604 35.9051 48.1071 35.5357 48.1071H29.9643C29.5949 48.1071 29.2406 47.9604 28.9794 47.6992C28.7182 47.438 28.5714 47.0837 28.5714 46.7143Z" fill="#1D4ED8"/>
</g>
</svg>
