<svg width="86" height="87" viewBox="0 0 86 87" fill="none" xmlns="http://www.w3.org/2000/svg">
<g id="Frame 1410087040">
<rect y="0.5" width="86" height="86" rx="43" fill="#338CFF" fill-opacity="0.1"/>
<path id="Vector" d="M62 41.052V59.3359C61.9996 59.9094 61.8441 60.472 61.5499 60.9643C61.2557 61.4566 60.8338 61.8604 60.3288 62.1327C59.8713 62.3802 59.3579 62.5065 58.8377 62.4997H49.3265C48.9066 62.4997 48.5038 62.3331 48.2069 62.0364C47.91 61.7397 47.7432 61.3373 47.7432 60.9177V51.4244C47.7432 51.0048 47.5763 50.6024 47.2794 50.3057C46.9825 50.0091 46.5798 49.8424 46.1598 49.8424H39.8265C39.4066 49.8424 39.0039 50.0091 38.707 50.3057C38.41 50.6024 38.2432 51.0048 38.2432 51.4244V60.9177C38.2432 61.3373 38.0764 61.7397 37.7795 62.0364C37.4825 62.3331 37.0798 62.4997 36.6599 62.4997H27.1673C26.7183 62.5009 26.2743 62.4062 25.865 62.2219C25.4557 62.0376 25.0906 61.7681 24.7941 61.4313C24.2735 60.8298 23.9911 60.0587 24.0002 59.2636V41.0518C24.0006 40.611 24.0929 40.1751 24.2714 39.772C24.4498 39.3688 24.7105 39.0073 25.0367 38.7105L40.8686 24.3276C41.4501 23.7953 42.2101 23.5001 42.9987 23.5C43.7874 23.4999 44.5474 23.795 45.1291 24.3272L60.9637 38.7107C61.2898 39.0075 61.5504 39.3691 61.7288 39.7722C61.9073 40.1754 61.9996 40.6112 62 41.052Z" fill="#1D4ED8"/>
</g>
</svg>
