<svg width="71" height="84" viewBox="0 0 71 84" fill="none" xmlns="http://www.w3.org/2000/svg">
<g id="Location">
<path id="Location_2" fill-rule="evenodd" clip-rule="evenodd" d="M0.0463867 34.9908C0.0463867 15.8247 16.0626 0.333496 35.4357 0.333496C54.8635 0.333496 70.8797 15.8247 70.8797 34.9908C70.8797 44.6489 67.3672 53.6153 61.586 61.2151C55.2081 69.5981 47.347 76.9021 38.4986 82.6353C36.4735 83.9602 34.6459 84.0602 32.4233 82.6353C23.5245 76.9021 15.6634 69.5981 9.34014 61.2151C3.55465 53.6153 0.0463867 44.6489 0.0463867 34.9908ZM23.7732 36.0701C23.7732 42.4907 29.0125 47.5406 35.4366 47.5406C41.865 47.5406 47.1547 42.4907 47.1547 36.0701C47.1547 29.6994 41.865 24.4037 35.4366 24.4037C29.0125 24.4037 23.7732 29.6994 23.7732 36.0701Z" fill="url(#paint0_linear_873_286)"/>
</g>
<defs>
<linearGradient id="paint0_linear_873_286" x1="0.0463867" y1="42.0002" x2="70.8797" y2="42.0002" gradientUnits="userSpaceOnUse">
<stop stop-color="#5433FF"/>
<stop offset="0.5" stop-color="#20BDFF"/>
<stop offset="1" stop-color="#A5FECB"/>
</linearGradient>
</defs>
</svg>
