<svg width="48" height="48" viewBox="0 0 48 48" fill="none" xmlns="http://www.w3.org/2000/svg">
<circle cx="23.9248" cy="23.8156" r="23.2305" fill="#338CFF"/>
<path d="M18.3746 16.9132C18.2753 16.9162 18.1777 16.9379 18.0875 16.9769C17.9974 17.0159 17.9164 17.0714 17.8496 17.1402C17.7827 17.209 17.7313 17.2897 17.6983 17.3775C17.6654 17.4653 17.6515 17.5584 17.6577 17.6512C17.7568 19.2441 18.2244 23.1307 20.463 25.5545C23.1437 28.4748 26.6349 29.4809 30.2167 29.3323C30.4087 29.3215 30.5892 29.2429 30.7217 29.1123C30.8543 28.9817 30.929 28.8089 30.9308 28.6287V26.0775C30.9286 25.8395 30.841 25.609 30.6822 25.4232C30.5234 25.2374 30.3026 25.1069 30.0552 25.0527L28.2614 24.6811C28.0396 24.6368 27.8086 24.6558 27.5985 24.7358C27.3883 24.8158 27.2086 24.953 27.0826 25.1297L26.6859 25.6926C26.6495 25.7441 26.595 25.782 26.5319 25.8C26.4688 25.8179 26.401 25.8146 26.3402 25.7908C25.4277 25.4218 21.7921 23.8289 21.3925 21.1423C21.3847 21.0904 21.3934 21.0375 21.4176 20.9902C21.4418 20.943 21.4804 20.9035 21.5285 20.8768L22.2483 20.4653C22.4457 20.3507 22.6008 20.182 22.6925 19.9821C22.7842 19.7822 22.8082 19.5607 22.7612 19.3476L22.3673 17.6379C22.3097 17.3984 22.1653 17.185 21.9586 17.0339C21.752 16.8829 21.4958 16.8037 21.2338 16.8097L18.3746 16.9132Z" stroke="white" stroke-width="0.737475"/>
</svg>
