<svg width="101" height="100" viewBox="0 0 101 100" fill="none" xmlns="http://www.w3.org/2000/svg">
<path fill-rule="evenodd" clip-rule="evenodd" d="M49.3301 91.3071C49.7915 91.5481 50.3075 91.6707 50.8234 91.6666C51.3394 91.6626 51.8512 91.5359 52.3168 91.2907L67.1829 83.3438C71.3987 81.0965 74.6999 78.5837 77.2755 75.6583C82.8755 69.2843 85.9334 61.1494 85.8789 52.7611L85.7027 25.0918C85.6859 21.9048 83.5928 19.061 80.497 18.0273L52.8411 8.74835C51.1758 8.1845 49.3511 8.19676 47.7151 8.77695L20.1641 18.3869C17.0851 19.4615 15.0297 22.3256 15.0465 25.5167L15.2227 53.1656C15.2772 61.5662 18.44 69.6643 24.1323 75.9729C26.733 78.8575 30.0637 81.3335 34.3255 83.544L49.3301 91.3071ZM45.3956 58.7874C46.0164 59.3839 46.8218 59.6781 47.6272 59.6699C48.4326 59.6658 49.2338 59.3635 49.8462 58.7588L66.0925 42.7422C67.3131 41.5369 67.3006 39.6002 66.0673 38.4112C64.8299 37.2223 62.8374 37.2304 61.6167 38.4358L47.5811 52.2705L41.8343 46.7464C40.5968 45.5574 38.6085 45.5697 37.3837 46.775C36.163 47.9803 36.1756 49.917 37.413 51.106L45.3956 58.7874Z" fill="url(#paint0_linear_337_7899)"/>
<defs>
<linearGradient id="paint0_linear_337_7899" x1="15.0464" y1="50.0002" x2="85.8797" y2="50.0002" gradientUnits="userSpaceOnUse">
<stop stop-color="#5433FF"/>
<stop offset="0.5" stop-color="#20BDFF"/>
<stop offset="1" stop-color="#A5FECB"/>
</linearGradient>
</defs>
</svg>
