<svg width="71" height="84" viewBox="0 0 71 84" fill="none" xmlns="http://www.w3.org/2000/svg">
<g id="Shield Done">
<path id="Shield Done_2" fill-rule="evenodd" clip-rule="evenodd" d="M34.3301 83.3071C34.7915 83.5481 35.3075 83.6707 35.8234 83.6666C36.3394 83.6626 36.8512 83.5359 37.3168 83.2907L52.1829 75.3438C56.3987 73.0965 59.6999 70.5837 62.2755 67.6583C67.8755 61.2843 70.9334 53.1494 70.8789 44.7611L70.7027 17.0918C70.6859 13.9048 68.5928 11.061 65.497 10.0273L37.8411 0.748347C36.1758 0.184499 34.3511 0.196757 32.7151 0.776948L5.16407 10.3869C2.08513 11.4615 0.0297097 14.3256 0.0464887 17.5167L0.222668 45.1656C0.277199 53.5662 3.44004 61.6643 9.1323 67.9729C11.733 70.8575 15.0637 73.3335 19.3255 75.544L34.3301 83.3071ZM30.3956 50.7874C31.0164 51.3839 31.8218 51.6781 32.6272 51.6699C33.4326 51.6658 34.2338 51.3635 34.8462 50.7588L51.0925 34.7422C52.3131 33.5369 52.3006 31.6002 51.0673 30.4112C49.8299 29.2223 47.8374 29.2304 46.6167 30.4358L32.5811 44.2705L26.8343 38.7464C25.5968 37.5574 23.6085 37.5697 22.3837 38.775C21.163 39.9803 21.1756 41.917 22.413 43.106L30.3956 50.7874Z" fill="url(#paint0_linear_873_1690)"/>
</g>
<defs>
<linearGradient id="paint0_linear_873_1690" x1="0.0463867" y1="42.0002" x2="70.8797" y2="42.0002" gradientUnits="userSpaceOnUse">
<stop stop-color="#5433FF"/>
<stop offset="0.5" stop-color="#20BDFF"/>
<stop offset="1" stop-color="#A5FECB"/>
</linearGradient>
</defs>
</svg>
