<svg width="85" height="76" viewBox="0 0 85 76" fill="none" xmlns="http://www.w3.org/2000/svg">
<g id="Ticket Star">
<path id="Ticket Star_2" fill-rule="evenodd" clip-rule="evenodd" d="M74.8006 38.0041C74.8006 41.3937 77.5839 44.1516 81.0047 44.1516C82.7297 44.1516 84.1297 45.5388 84.1297 47.248V58.3994C84.1297 67.8291 76.388 75.5 66.8714 75.5H18.0589C8.54222 75.5 0.796387 67.8291 0.796387 58.3994V47.248C0.796387 45.5388 2.19639 44.1516 3.92139 44.1516C7.34639 44.1516 10.1297 41.3937 10.1297 38.0041C10.1297 34.7013 7.45889 32.2158 3.92139 32.2158C3.09222 32.2158 2.30055 31.8897 1.71305 31.3076C1.12555 30.7254 0.796387 29.9369 0.796387 29.1194L0.80472 17.6048C0.80472 8.17505 8.54639 0.5 18.0631 0.5H66.8631C76.3797 0.5 84.1255 8.17505 84.1255 17.6048L84.1297 28.7602C84.1297 29.5777 83.8006 30.3704 83.2172 30.9484C82.6297 31.5305 81.8381 31.8567 81.0047 31.8567C77.5839 31.8567 74.8006 34.6146 74.8006 38.0041ZM51.8452 40.7004L56.7577 35.9607C57.6119 35.1433 57.9077 33.9377 57.5369 32.823C57.1702 31.7083 56.2119 30.9156 55.0535 30.7546L48.266 29.772L45.2285 23.6782C44.7077 22.6295 43.6494 21.9772 42.4702 21.9731H42.4619C41.2869 21.9731 40.2285 22.6254 39.6994 23.6741L36.6619 29.772L29.8869 30.7505C28.716 30.9156 27.7577 31.7083 27.3869 32.823C27.0202 33.9377 27.316 35.1433 28.166 35.9607L33.0785 40.7004L31.9202 47.4011C31.7202 48.5571 32.191 49.7048 33.1494 50.3943C33.691 50.7783 34.3202 50.9764 34.9577 50.9764C35.4452 50.9764 35.9369 50.8567 36.3869 50.6214L42.4619 47.4589L48.5244 50.6131C49.5744 51.1705 50.8202 51.0838 51.7744 50.3902C52.7369 49.7048 53.2077 48.5571 53.0077 47.4011L51.8452 40.7004Z" fill="url(#paint0_linear_937_1405)"/>
</g>
<defs>
<linearGradient id="paint0_linear_937_1405" x1="0.796387" y1="38" x2="84.1297" y2="38" gradientUnits="userSpaceOnUse">
<stop stop-color="#5433FF"/>
<stop offset="0.5" stop-color="#20BDFF"/>
<stop offset="1" stop-color="#A5FECB"/>
</linearGradient>
</defs>
</svg>
