<svg width="31" height="31" viewBox="0 0 31 31" fill="none" xmlns="http://www.w3.org/2000/svg">
<g id="noun-vr-6249133 1">
<rect width="31" height="31" rx="15.5" fill="#F3C10E" fill-opacity="0.2"/>
<path id="Vector" d="M8.59182 21.2127L8.59153 21.212C8.39888 20.7528 8.39211 20.2407 8.39211 19.111V18.0349C8.39211 16.9284 8.39436 16.1121 8.49538 15.4649C8.59391 14.8336 8.78131 14.4026 9.12856 14.0511C9.47446 13.701 9.90066 13.513 10.5271 13.4146C11.1702 13.3136 11.9816 13.3125 13.0818 13.3125H17.9197C19.0193 13.3125 19.8297 13.3148 20.4721 13.4164C21.098 13.5153 21.5254 13.7034 21.8744 14.0527C22.2226 14.4011 22.4098 14.8309 22.5078 15.4627C22.6082 16.1106 22.6093 16.9279 22.6093 18.0349V19.0648C22.6093 20.2405 22.6022 20.7773 22.3996 21.2516C22.1451 21.8311 21.6843 22.2929 21.1088 22.5465C20.6389 22.7501 20.1049 22.7574 18.9356 22.7574H18.6719V22.7571L18.6589 22.7576C18.4292 22.7653 18.1992 22.7565 17.9707 22.7314C17.4137 22.6451 16.9009 22.3735 16.5145 21.9593C16.3626 21.7895 16.2226 21.6095 16.0953 21.4203L16.0954 21.4203L16.0923 21.4158L15.785 20.9727L15.4414 20.477L15.1302 20.9937L14.8883 21.3954L14.8874 21.3969C14.788 21.5637 14.7398 21.6405 14.6943 21.7073C14.4793 22.0096 14.201 22.2604 13.8792 22.442C13.5604 22.6218 13.2065 22.7294 12.8424 22.7574H12.8424H12.8418H12.8413H12.8407H12.8401H12.8396H12.839H12.8385H12.8379H12.8373H12.8368H12.8362H12.8357H12.8351H12.8345H12.834H12.8334H12.8329H12.8323H12.8317H12.8312H12.8306H12.83H12.8295H12.8289H12.8284H12.8278H12.8272H12.8267H12.8261H12.8255H12.825H12.8244H12.8238H12.8233H12.8227H12.8221H12.8216H12.821H12.8204H12.8199H12.8193H12.8187H12.8181H12.8176H12.817H12.8164H12.8159H12.8153H12.8147H12.8141H12.8136H12.813H12.8124H12.8118H12.8113H12.8107H12.8101H12.8095H12.809H12.8084H12.8078H12.8072H12.8066H12.8061H12.8055H12.8049H12.8043H12.8037H12.8032H12.8026H12.802H12.8014H12.8008H12.8002H12.7997H12.7991H12.7985H12.7979H12.7973H12.7967H12.7961H12.7955H12.7949H12.7944H12.7938H12.7932H12.7926H12.792H12.7914H12.7908H12.7902H12.7896H12.789H12.7884H12.7878H12.7872H12.7866H12.786H12.7854H12.7848H12.7842H12.7836H12.783H12.7824H12.7818H12.7812H12.7806H12.78H12.7794H12.7788H12.7782H12.7776H12.7769H12.7763H12.7757H12.7751H12.7745H12.7739H12.7733H12.7727H12.772H12.7714H12.7708H12.7702H12.7696H12.769H12.7683H12.7677H12.7671H12.7665H12.7658H12.7652H12.7646H12.764H12.7633H12.7627H12.7621H12.7615H12.7608H12.7602H12.7596H12.7589H12.7583H12.7577H12.757H12.7564H12.7558H12.7551H12.7545H12.7539H12.7532H12.7526H12.7519H12.7513H12.7506H12.75H12.7494H12.7487H12.7481H12.7474H12.7468H12.7461H12.7455H12.7448H12.7442H12.7435H12.7429H12.7422H12.7415H12.7409H12.7402H12.7396H12.7389H12.7383H12.7376H12.7369H12.7363H12.7356H12.7349H12.7343H12.7336H12.7329H12.7323H12.7316H12.7309H12.7302H12.7296H12.7289H12.7282H12.7275H12.7269H12.7262H12.7255H12.7248H12.7241H12.7235H12.7228H12.7221H12.7214H12.7207H12.72H12.7193H12.7186H12.718H12.7173H12.7166H12.7159H12.7152H12.7145H12.7138H12.7131H12.7124H12.7117H12.711H12.7103H12.7096H12.7089H12.7081H12.7074H12.7067H12.706H12.7053H12.7046H12.7039H12.7032H12.7024H12.7017H12.701H12.7003H12.6996H12.6988H12.6981H12.6974H12.6967H12.6959H12.6952H12.6945H12.6937H12.693H12.6923H12.6915H12.6908H12.6901H12.6893H12.6886H12.6878H12.6871H12.6863H12.6856H12.6848H12.6841H12.6834H12.6826H12.6818H12.6811H12.6803H12.6796H12.6788H12.6781H12.6773H12.6765H12.6758H12.675H12.6742H12.6735H12.6727H12.6719H12.6712H12.6704H12.6696H12.6688H12.6681H12.6673H12.6665H12.6657H12.6649H12.6642H12.6634H12.6626H12.6618H12.661H12.6602H12.6594H12.6586H12.6578H12.657H12.6562H12.6554H12.6546H12.6538H12.653H12.6522H12.6514H12.6506H12.6498H12.649H12.6482H12.6474H12.6465H12.6457H12.6449H12.6441H12.6433H12.6424H12.6416H12.6408H12.64H12.6391H12.6383H12.6375H12.6366H12.6358H12.635H12.6341H12.6333H12.6324H12.6316H12.6307H12.6299H12.629H12.6282H12.6273H12.6265H12.6256H12.6248H12.6239H12.6231H12.6222H12.6213H12.6205H12.6196H12.6187H12.6179H12.617H12.6161H12.6152H12.6144H12.6135H12.6126H12.6117H12.6108H12.6099H12.6091H12.6082H12.6073H12.6064H12.6055H12.6046H12.6037H12.6028H12.6019H12.601H12.6001H12.5992H12.5983H12.5974H12.5965H12.5955H12.5946H12.5937H12.5928H12.5919H12.5909H12.59H12.5891H12.5882H12.5872H12.5863H12.5854H12.5844H12.5835H12.5826H12.5816H12.5807H12.5797H12.5788H12.5778H12.5769H12.5759H12.575H12.574H12.5731H12.5721H12.5712H12.5702H12.5692H12.5683H12.5673H12.5663H12.5654H12.5644H12.5634H12.5624H12.5614H12.5605H12.5595H12.5585H12.5575H12.5565H12.5555H12.5545H12.5535H12.5525H12.5515H12.5505H12.5495H12.5485H12.5475H12.5465H12.5455H12.5445H12.5435H12.5425H12.5414H12.5404H12.5394H12.5384H12.5373H12.5363H12.5353H12.5343H12.5332H12.5322H12.5311H12.5301H12.5291H12.528H12.527H12.5259H12.5249H12.5238H12.5227H12.5217H12.5206H12.5196H12.5185H12.5174H12.5164H12.5153H12.5142H12.5131H12.5121H12.511H12.5099H12.5088H12.5077H12.5067H12.5056H12.5045H12.5034H12.5023H12.5012H12.5001H12.499H12.4979H12.4968H12.4957H12.4945H12.4934H12.4923H12.4912H12.4901H12.4889H12.4878H12.4867H12.4856H12.4844H12.4833H12.4822H12.481H12.4799H12.4787H12.4776H12.4764H12.4753H12.4741H12.473H12.4718H12.4707H12.4695H12.4684H12.4672H12.466H12.4648H12.4637H12.4625H12.0126C10.8892 22.7574 10.3803 22.7503 9.92821 22.5574L9.92694 22.5569C9.32488 22.3024 8.84524 21.8201 8.59182 21.2127ZM21.7819 20.9746L21.7819 20.9746L21.7841 20.9694C21.8738 20.7572 21.9065 20.4979 21.9222 20.208C21.9382 19.914 21.9382 19.5401 21.9382 19.0764V19.0648V18.0349C21.9382 17.1411 21.9381 16.4191 21.8821 15.868C21.8275 15.331 21.7131 14.8544 21.3999 14.5374C21.0849 14.2185 20.6083 14.1032 20.0741 14.0485C19.5305 13.9929 18.8196 13.9929 17.9423 13.9929H17.9197H13.0818C12.1938 13.9929 11.476 13.9931 10.9279 14.0495C10.3936 14.1045 9.9187 14.2199 9.60308 14.5358C9.28687 14.8522 9.17257 15.3304 9.11836 15.8673C9.06316 16.414 9.06317 17.1293 9.06317 18.0125V18.0349V19.111V19.1222C9.06317 19.5681 9.06317 19.9294 9.07791 20.2128C9.09235 20.4906 9.12222 20.7427 9.20691 20.9459L9.20731 20.9468C9.39346 21.39 9.74423 21.7434 10.1859 21.9314L10.1869 21.9318C10.3897 22.0174 10.6413 22.0475 10.9174 22.0621C11.1993 22.0769 11.5584 22.0769 12.0014 22.0769H12.0126H12.5834H12.7455H12.7604L12.7752 22.0758C13.0472 22.055 13.3112 21.9738 13.548 21.838C13.7835 21.7031 13.9862 21.5176 14.142 21.295C14.1876 21.2322 14.2271 21.1668 14.2772 21.0804C14.2775 21.0799 14.2778 21.0795 14.278 21.079L14.9777 19.8941C14.9777 19.8941 14.9777 19.8941 14.9777 19.8941C15.0221 19.8192 15.0843 19.7569 15.1584 19.7129C15.2325 19.6688 15.3163 19.6444 15.402 19.6415C15.4876 19.6386 15.5728 19.6574 15.6496 19.6963C15.7264 19.7353 15.7926 19.7932 15.8418 19.8649L15.8418 19.8649L15.8429 19.8665L16.6287 20.9995C16.738 21.1656 16.8573 21.325 16.9859 21.4766L16.9916 21.4833L16.9976 21.4897C17.283 21.7969 17.6641 21.9976 18.0785 22.0582L18.0899 22.0599L18.1014 22.0609C18.2956 22.0776 18.4906 22.083 18.6854 22.0769H18.9429H18.9546C19.4153 22.0769 19.7893 22.0769 20.0827 22.0608C20.3702 22.045 20.6323 22.0124 20.8424 21.9194L20.8432 21.919C21.2625 21.7324 21.597 21.3954 21.7819 20.9746Z" fill="#1B1C57" stroke="#8DC63F" stroke-width="0.780307"/>
<path id="Vector_2" d="M12.5968 16.8179C12.5497 16.8181 12.5027 16.823 12.4565 16.8325C12.41 16.8415 12.3646 16.8554 12.321 16.8739C12.2756 16.8927 12.2319 16.9155 12.1904 16.942C12.151 16.97 12.1138 17.0009 12.0791 17.0345C11.9454 17.1716 11.8706 17.3561 11.8711 17.5482C11.8714 17.5965 11.8763 17.6446 11.8856 17.6919C11.8948 17.7378 11.9086 17.7827 11.9267 17.8258C11.9454 17.8715 11.9681 17.9155 11.9945 17.9572C12.0478 18.0364 12.116 18.1042 12.1952 18.1569C12.2346 18.1813 12.2758 18.2025 12.3186 18.2202C12.3615 18.2384 12.406 18.2523 12.4516 18.2616C12.4994 18.2719 12.548 18.2776 12.5968 18.2786C12.7898 18.2778 12.9747 18.2009 13.112 18.0644C13.1455 18.0295 13.1763 17.9921 13.2039 17.9524C13.2282 17.9128 13.2493 17.8713 13.2668 17.8282C13.2851 17.7843 13.2989 17.7386 13.308 17.6919C13.3173 17.6446 13.3222 17.5965 13.3225 17.5482C13.3216 17.354 13.2452 17.1679 13.1096 17.0297C12.9732 16.8936 12.7888 16.8174 12.5968 16.8179Z" fill="#3F6807"/>
<path id="Vector_3" d="M18.8082 18.1545C18.8476 18.1265 18.8848 18.0956 18.9194 18.0619C19.0546 17.9251 19.1305 17.74 19.1305 17.547C19.1305 17.3541 19.0546 17.169 18.9194 17.0321C18.8855 16.9993 18.8491 16.9692 18.8106 16.942C18.7705 16.9166 18.7285 16.8947 18.6848 16.8763C18.6412 16.8579 18.5958 16.844 18.5493 16.8349C18.5009 16.8242 18.4514 16.8185 18.4018 16.8179C18.3063 16.8173 18.2116 16.8358 18.1232 16.8721C18.0348 16.9084 17.9544 16.962 17.8865 17.0297C17.8529 17.0653 17.8222 17.1036 17.7946 17.1441C17.7703 17.1837 17.7493 17.2252 17.7317 17.2683C17.7134 17.3122 17.6996 17.3579 17.6906 17.4046C17.6708 17.4993 17.6708 17.5972 17.6906 17.6919C17.6998 17.7378 17.7136 17.7827 17.7317 17.8258C17.7504 17.8715 17.7731 17.9155 17.7995 17.9573C17.8272 17.9969 17.8579 18.0343 17.8914 18.0692C18.0283 18.2028 18.2112 18.2778 18.4018 18.2786C18.4497 18.2783 18.4975 18.2734 18.5445 18.264C18.5901 18.2548 18.6347 18.2409 18.6775 18.2226C18.723 18.2038 18.7667 18.181 18.8082 18.1545Z" fill="#3F6807"/>
<path id="Vector_4" d="M15.4971 8.44342L15.497 8.44351L15.5053 8.44342C17.3113 8.4244 19.0858 8.91127 20.6311 9.84781V9.87776L20.8416 9.98696C20.8832 10.0085 20.92 10.0388 20.9496 10.0758C20.9792 10.1129 21.0008 10.1559 21.013 10.2022C21.0251 10.2486 21.0275 10.297 21.02 10.3443C21.0124 10.3916 20.995 10.4367 20.9692 10.4766C20.9433 10.5165 20.9096 10.5503 20.8702 10.576C20.8309 10.6017 20.7867 10.6186 20.7407 10.6259C20.6947 10.6333 20.6477 10.6308 20.6026 10.6186C20.5576 10.6065 20.5154 10.585 20.4788 10.5552L20.4603 10.5402L20.4402 10.5275C18.9599 9.59747 17.2469 9.11054 15.5015 9.12386C13.7571 9.10763 12.0443 9.591 10.5628 10.5174L10.5423 10.5302L10.5235 10.5455C10.487 10.5752 10.4448 10.5968 10.3997 10.6089C10.3547 10.621 10.3076 10.6235 10.2616 10.6162C10.2156 10.6089 10.1715 10.5919 10.1321 10.5663C10.0927 10.5406 10.059 10.5068 10.0331 10.4669C10.0073 10.427 9.98994 10.3819 9.98237 10.3346C9.9748 10.2872 9.97719 10.2388 9.98936 10.1925L9.61201 10.0934L9.98936 10.1925C10.0015 10.1462 10.0232 10.1032 10.0528 10.0661C10.0823 10.029 10.1192 9.9988 10.1608 9.97722L10.1761 9.96929L10.1906 9.96004C11.7774 8.95023 13.6202 8.42365 15.4971 8.44342Z" fill="#1B1C57" stroke="#8DC63F" stroke-width="0.780307"/>
</g>
</svg>
