<svg width="41" height="40" viewBox="0 0 41 40" fill="none" xmlns="http://www.w3.org/2000/svg">
<path d="M29.4121 7.38603L26.0787 5.63678C23.1527 4.10126 21.6897 3.3335 20.1159 3.3335C18.5421 3.3335 17.0791 4.10125 14.153 5.63677L13.6168 5.91816L28.4886 14.4163L35.1831 11.069C34.1061 9.84932 32.3683 8.9374 29.4121 7.38603Z" fill="#338CFF"/>
<path d="M36.3632 13.2741L29.6992 16.606V21.6668C29.6992 22.3572 29.1396 22.9168 28.4492 22.9168C27.7589 22.9168 27.1992 22.3572 27.1992 21.6668V17.856L21.3659 20.7727V36.5069C22.5624 36.2088 23.9238 35.4944 26.0787 34.3636L29.4121 32.6143C32.9982 30.7324 34.7912 29.7914 35.7869 28.1006C36.7826 26.4097 36.7826 24.3057 36.7826 20.0976V19.9027C36.7826 16.7483 36.7826 14.7761 36.3632 13.2741Z" fill="#338CFF"/>
<path d="M18.8659 36.5069V20.7727L3.86862 13.2741C3.44922 14.7761 3.44922 16.7482 3.44922 19.9027V20.0976C3.44922 24.3057 3.44922 26.4097 4.44488 28.1006C5.44054 29.7914 7.23359 30.7324 10.8197 32.6143L14.153 34.3636C16.3079 35.4944 17.6694 36.2088 18.8659 36.5069Z" fill="#338CFF"/>
<path d="M5.04871 11.069L20.1159 18.6026L25.8011 15.76L10.9902 7.29658L10.8197 7.38603C7.86346 8.9374 6.12572 9.84932 5.04871 11.069Z" fill="#338CFF"/>
</svg>
