<svg width="41" height="40" viewBox="0 0 41 40" fill="none" xmlns="http://www.w3.org/2000/svg">
<path d="M12.4531 7.5C11.7832 8.66025 11.7832 10.2179 11.7832 13.3333V18.3782C12.5003 18.3332 13.3065 18.3333 14.1745 18.3333H26.0579C26.9262 18.3333 27.7326 18.3332 28.4499 18.3782V13.3333C28.4499 10.2179 28.4499 8.66025 27.78 7.5C27.3412 6.7399 26.71 6.10871 25.9499 5.66987C24.7896 5 23.2319 5 20.1165 5C17.0012 5 15.4435 5 14.2832 5.66987C13.5231 6.10871 12.8919 6.7399 12.4531 7.5Z" fill="#338CFF"/>
<path d="M10.5326 26.6523C9.69583 26.6185 9.18932 26.5054 8.84255 26.1269C8.34798 25.5872 8.41242 24.8363 8.54129 23.3347C8.63434 22.2505 8.84473 21.5209 9.32045 20.9763C10.1734 20 11.5462 20 14.2917 20H25.9401C28.6856 20 30.0584 20 30.9113 20.9763C31.387 21.5209 31.5974 22.2505 31.6905 23.3347C31.8193 24.8363 31.8838 25.5872 31.3892 26.1269C31.0425 26.5054 30.5359 26.6185 29.6992 26.6523V34.9999C29.6992 35.6903 29.1396 36.2499 28.4492 36.2499C27.7589 36.2499 27.1992 35.6903 27.1992 34.9999V26.6667H13.0326V34.9999C13.0326 35.6903 12.4729 36.2499 11.7826 36.2499C11.0922 36.2499 10.5326 35.6903 10.5326 34.9999V26.6523Z" fill="#338CFF"/>
</svg>
