<svg width="41" height="40" viewBox="0 0 41 40" fill="none" xmlns="http://www.w3.org/2000/svg">
<path fill-rule="evenodd" clip-rule="evenodd" d="M4.91368 9.79796C3.44922 11.2624 3.44922 13.6195 3.44922 18.3335C3.44922 24.6189 3.44922 27.7616 5.40184 29.7142C6.26659 30.579 7.36474 31.0607 8.8659 31.3292C8.86626 29.9427 8.87332 28.7781 8.99907 27.8427C9.13975 26.7964 9.4492 25.8517 10.2083 25.0926C10.9674 24.3335 11.9121 24.024 12.9584 23.8834C13.9497 23.7501 15.1984 23.7501 16.6959 23.7502H23.5359C25.0334 23.7501 26.2821 23.7501 27.2734 23.8834C28.3197 24.024 29.2643 24.3335 30.0235 25.0926C30.7826 25.8517 31.092 26.7964 31.2327 27.8427C31.3585 28.7781 31.3655 29.9427 31.3659 31.3292C32.867 31.0607 33.9652 30.579 34.8299 29.7142C36.7826 27.7616 36.7826 24.6189 36.7826 18.3335C36.7826 13.6195 36.7826 11.2624 35.3181 9.79796C33.8536 8.3335 31.4966 8.3335 26.7826 8.3335H13.4492C8.73517 8.3335 6.37815 8.3335 4.91368 9.79796ZM8.86589 19.1668C8.86589 18.4765 9.42553 17.9168 10.1159 17.9168H30.1159C30.8062 17.9168 31.3659 18.4765 31.3659 19.1668C31.3659 19.8572 30.8062 20.4168 30.1159 20.4168H10.1159C9.42553 20.4168 8.86589 19.8572 8.86589 19.1668ZM10.1159 13.7502C9.42553 13.7502 8.86589 14.3098 8.86589 15.0002C8.86589 15.6905 9.42553 16.2502 10.1159 16.2502H30.1159C30.8062 16.2502 31.3659 15.6905 31.3659 15.0002C31.3659 14.3098 30.8062 13.7502 30.1159 13.7502H10.1159Z" fill="#338CFF"/>
<path d="M28.8659 31.5891C28.8658 30.0252 28.8615 28.9678 28.755 28.1758C28.6516 27.4067 28.4729 27.0776 28.2557 26.8604C28.0385 26.6432 27.7093 26.4645 26.9402 26.3611C26.1352 26.2528 25.0559 26.2502 23.4492 26.2502H16.7826C15.1759 26.2502 14.0966 26.2528 13.2915 26.3611C12.5224 26.4645 12.1933 26.6432 11.9761 26.8604C11.7589 27.0776 11.5802 27.4067 11.4768 28.1758C11.3703 28.9678 11.366 30.0252 11.3659 31.5891C12.8569 31.6668 14.6366 31.6668 16.7826 31.6668H23.4492C25.5952 31.6668 27.3749 31.6668 28.8659 31.5891Z" fill="#338CFF"/>
</svg>
