<svg width="20" height="20" viewBox="0 0 20 20" fill="none" xmlns="http://www.w3.org/2000/svg">
<path d="M16.1709 2.96582L15.3375 1.52238C15.2638 1.39482 15.1425 1.30173 15.0002 1.26359C14.8579 1.22544 14.7063 1.24535 14.5787 1.31895L1.58842 8.81895C1.52526 8.85542 1.46989 8.90398 1.4255 8.96185C1.3811 9.01973 1.34854 9.08578 1.32968 9.15624C1.31082 9.2267 1.30602 9.30019 1.31556 9.3725C1.32511 9.44482 1.3488 9.51454 1.3853 9.5777L2.21874 11.0211C2.45579 10.8815 2.71816 10.7902 2.99069 10.7525C3.26322 10.7148 3.54052 10.7315 3.80658 10.8015C4.07264 10.8715 4.3222 10.9936 4.54084 11.1606C4.75948 11.3276 4.94287 11.5363 5.08044 11.7745C5.21801 12.0128 5.30702 12.2759 5.34235 12.5488C5.37767 12.8216 5.3586 13.0988 5.28625 13.3642C5.21389 13.6297 5.08967 13.8781 4.92077 14.0953C4.75187 14.3125 4.54163 14.4941 4.30217 14.6296L4.99655 15.8324C5.10708 16.0238 5.28911 16.1634 5.50261 16.2206C5.7161 16.2778 5.94357 16.2479 6.13499 16.1374L18.6437 8.9152C18.8351 8.80467 18.9748 8.62263 19.032 8.40914C19.0892 8.19564 19.0592 7.96817 18.9487 7.77676L18.254 6.57426C18.0171 6.71104 17.7556 6.79981 17.4843 6.83551C17.2131 6.87121 16.9375 6.85313 16.6732 6.78231C16.1395 6.63929 15.6845 6.29011 15.4083 5.8116C15.2715 5.57467 15.1827 5.31311 15.147 5.04187C15.1113 4.77063 15.1294 4.49502 15.2002 4.23076C15.3432 3.69707 15.6924 3.24206 16.1709 2.96582Z" fill="#FAA307"/>
<path d="M19.0625 11.25V9.375C19.0625 9.20924 18.9967 9.05027 18.8794 8.93306C18.7622 8.81585 18.6033 8.75 18.4375 8.75H1.5625C1.39674 8.75 1.23777 8.81585 1.12056 8.93306C1.00335 9.05027 0.9375 9.20924 0.9375 9.375V11.25C1.5591 11.25 2.15524 11.4969 2.59478 11.9365C3.03432 12.376 3.28125 12.9721 3.28125 13.5938C3.28125 14.2154 3.03432 14.8115 2.59478 15.251C2.15524 15.6906 1.5591 15.9375 0.9375 15.9375V17.5C0.9375 17.7486 1.03627 17.9871 1.21209 18.1629C1.3879 18.3387 1.62636 18.4375 1.875 18.4375H18.125C18.3736 18.4375 18.6121 18.3387 18.7879 18.1629C18.9637 17.9871 19.0625 17.7486 19.0625 17.5V15.9375C18.4409 15.9375 17.8448 15.6906 17.4052 15.251C16.9657 14.8115 16.7188 14.2154 16.7188 13.5938C16.7188 12.9721 16.9657 12.376 17.4052 11.9365C17.8448 11.4969 18.4409 11.25 19.0625 11.25Z" fill="#FFD100"/>
<path d="M10.625 12.8125C11.1428 12.8125 11.5625 12.3928 11.5625 11.875C11.5625 11.3572 11.1428 10.9375 10.625 10.9375C10.1072 10.9375 9.6875 11.3572 9.6875 11.875C9.6875 12.3928 10.1072 12.8125 10.625 12.8125Z" fill="white"/>
<path d="M14.375 16.5625C14.8928 16.5625 15.3125 16.1428 15.3125 15.625C15.3125 15.1072 14.8928 14.6875 14.375 14.6875C13.8572 14.6875 13.4375 15.1072 13.4375 15.625C13.4375 16.1428 13.8572 16.5625 14.375 16.5625Z" fill="white"/>
<path d="M10.1563 16.0939C10.0949 16.0325 10.0462 15.9595 10.0131 15.8792C9.97997 15.7989 9.96306 15.7128 9.96332 15.626C9.96358 15.5391 9.98101 15.4531 10.0146 15.373C10.0482 15.2929 10.0973 15.2203 10.1591 15.1592L13.9331 11.4333C14.051 11.3194 14.2089 11.2564 14.3728 11.2578C14.5366 11.2593 14.6934 11.325 14.8093 11.4409C14.9252 11.5568 14.9909 11.7135 14.9923 11.8774C14.9937 12.0413 14.9307 12.1991 14.8169 12.317L11.091 16.0911C11.0299 16.1529 10.9572 16.2019 10.8771 16.2355C10.797 16.2691 10.7111 16.2866 10.6242 16.2868C10.5373 16.2871 10.4513 16.2702 10.371 16.2371C10.2907 16.204 10.2177 16.1553 10.1563 16.0939Z" fill="white"/>
<path d="M7.1875 10C7.27038 10 7.34987 9.96708 7.40847 9.90847C7.46708 9.84987 7.5 9.77038 7.5 9.6875V8.75H6.875V9.6875C6.875 9.77038 6.90792 9.84987 6.96653 9.90847C7.02513 9.96708 7.10462 10 7.1875 10Z" fill="white"/>
<path d="M7.1875 13.125C7.27038 13.125 7.34987 13.0921 7.40847 13.0335C7.46708 12.9749 7.5 12.8954 7.5 12.8125V11.25C7.5 11.1671 7.46708 11.0876 7.40847 11.029C7.34987 10.9704 7.27038 10.9375 7.1875 10.9375C7.10462 10.9375 7.02513 10.9704 6.96653 11.029C6.90792 11.0876 6.875 11.1671 6.875 11.25V12.8125C6.875 12.8954 6.90792 12.9749 6.96653 13.0335C7.02513 13.0921 7.10462 13.125 7.1875 13.125Z" fill="white"/>
<path d="M7.1875 16.25C7.27038 16.25 7.34987 16.2171 7.40847 16.1585C7.46708 16.0999 7.5 16.0204 7.5 15.9375V14.375C7.5 14.2921 7.46708 14.2126 7.40847 14.154C7.34987 14.0954 7.27038 14.0625 7.1875 14.0625C7.10462 14.0625 7.02513 14.0954 6.96653 14.154C6.90792 14.2126 6.875 14.2921 6.875 14.375V15.9375C6.875 16.0204 6.90792 16.0999 6.96653 16.1585C7.02513 16.2171 7.10462 16.25 7.1875 16.25Z" fill="white"/>
<path d="M7.1875 17.1875C7.10462 17.1875 7.02513 17.2204 6.96653 17.279C6.90792 17.3376 6.875 17.4171 6.875 17.5V18.4375H7.5V17.5C7.5 17.4171 7.46708 17.3376 7.40847 17.279C7.34987 17.2204 7.27038 17.1875 7.1875 17.1875Z" fill="white"/>
</svg>
