<svg width="123" height="123" viewBox="0 0 123 123" fill="none" xmlns="http://www.w3.org/2000/svg">
<path d="M110.188 73.8003V85.5366C110.188 104.192 99.0664 115.313 80.4114 115.313H37.4639C24.3951 115.313 14.9651 109.829 10.5576 100.092L11.1214 99.6816L36.3364 82.7691C38.3708 81.4231 40.7838 80.7663 43.2197 80.8955C45.6557 81.0246 47.9857 81.933 49.8664 83.4866L51.6089 84.9216C53.6487 86.5876 56.2014 87.4976 58.8351 87.4976C61.4688 87.4976 64.0216 86.5876 66.0614 84.9216L87.3814 66.6253C89.4212 64.9593 91.9739 64.0493 94.6076 64.0493C97.2413 64.0493 99.7941 64.9593 101.834 66.6253L110.188 73.8003Z" fill="url(#paint0_linear_175_2120)"/>
<path opacity="0.4" d="M110.187 42.4196V42.5888V73.8L101.834 66.625C99.7937 64.959 97.2409 64.049 94.6073 64.049C91.9736 64.049 89.4208 64.959 87.381 66.625L66.061 84.9213C64.0212 86.5872 61.4684 87.4973 58.8348 87.4973C56.2011 87.4973 53.6483 86.5872 51.6085 84.9213L49.866 83.4863C47.9854 81.9327 45.6554 81.0243 43.2194 80.8952C40.7835 80.766 38.3704 81.4228 36.336 82.7688L11.121 99.6813L10.5573 100.091C8.55509 95.5055 7.57572 90.5388 7.68727 85.5363V42.5888C7.68727 23.9338 18.8085 12.8125 37.4635 12.8125H80.411H80.5801C79.7982 14.4608 79.4071 16.2672 79.4373 18.0913V33.1588C79.3079 34.5573 79.4881 35.9672 79.9652 37.2883C80.4422 38.6093 81.2044 39.809 82.1976 40.8022C83.1908 41.7953 84.3905 42.5575 85.7115 43.0346C87.0326 43.5117 88.4425 43.6919 89.841 43.5625H104.909C106.733 43.5926 108.539 43.2015 110.187 42.4196Z" fill="url(#paint1_linear_175_2120)"/>
<path d="M55.7344 43.5625C55.7344 45.9699 55.0205 48.3232 53.6831 50.3248C52.3456 52.3265 50.4446 53.8866 48.2205 54.8078C45.9964 55.7291 43.549 55.9701 41.1879 55.5005C38.8268 55.0308 36.658 53.8716 34.9557 52.1693C33.2534 50.467 32.0942 48.2982 31.6245 45.9371C31.1549 43.576 31.3959 41.1286 32.3172 38.9045C33.2384 36.6804 34.7985 34.7794 36.8002 33.442C38.8018 32.1045 41.1551 31.3906 43.5625 31.3906C46.7899 31.3933 49.8842 32.6766 52.1663 34.9587C54.4484 37.2408 55.7317 40.3352 55.7344 43.5625Z" fill="url(#paint2_linear_175_2120)"/>
<path d="M104.908 7.68766H89.8409C88.4424 7.55824 87.0324 7.73847 85.7114 8.21555C84.3904 8.69262 83.1907 9.45483 82.1975 10.448C81.2043 11.4411 80.4421 12.6409 79.9651 13.9619C79.488 15.2829 79.3078 16.6928 79.4372 18.0914V33.1589C79.3078 34.5575 79.488 35.9674 79.9651 37.2884C80.4421 38.6094 81.2043 39.8092 82.1975 40.8023C83.1907 41.7955 84.3904 42.5577 85.7114 43.0348C87.0324 43.5118 88.4424 43.6921 89.8409 43.5627H104.908C106.307 43.6921 107.717 43.5118 109.038 43.0348C110.359 42.5577 111.559 41.7955 112.552 40.8023C113.545 39.8092 114.307 38.6094 114.784 37.2884C115.261 35.9674 115.442 34.5575 115.312 33.1589V18.0914C115.442 16.6928 115.261 15.2829 114.784 13.9619C114.307 12.6409 113.545 11.4411 112.552 10.448C111.559 9.45483 110.359 8.69262 109.038 8.21555C107.717 7.73847 106.307 7.55824 104.908 7.68766ZM109.726 27.8289C109.158 28.3767 108.413 28.7038 107.625 28.7514H100.398L100.45 35.8752C100.421 36.7076 100.072 37.4969 99.4759 38.0789C98.9156 38.6318 98.1618 38.9443 97.3747 38.9502C96.9709 38.9502 96.571 38.8706 96.1979 38.7161C95.8248 38.5616 95.4859 38.3351 95.2003 38.0495C94.9148 37.764 94.6883 37.425 94.5337 37.0519C94.3792 36.6788 94.2997 36.279 94.2997 35.8752V28.7002L87.1247 28.7514C86.3045 28.738 85.5224 28.4027 84.9471 27.8178C84.3719 27.233 84.0496 26.4455 84.0497 25.6252C84.0497 24.8096 84.3736 24.0275 84.9503 23.4508C85.527 22.8741 86.3091 22.5502 87.1247 22.5502L94.2997 22.6014V15.4264C94.2997 14.6109 94.6236 13.8287 95.2003 13.2521C95.777 12.6754 96.5591 12.3514 97.3747 12.3514C98.1902 12.3514 98.9724 12.6754 99.549 13.2521C100.126 13.8287 100.45 14.6109 100.45 15.4264L100.398 22.5502H107.625C108.028 22.5502 108.428 22.6297 108.801 22.7842C109.174 22.9388 109.513 23.1653 109.799 23.4508C110.085 23.7363 110.311 24.0753 110.466 24.4484C110.62 24.8215 110.7 25.2213 110.7 25.6252C110.647 26.452 110.302 27.2332 109.726 27.8289Z" fill="url(#paint3_linear_175_2120)"/>
<defs>
<linearGradient id="paint0_linear_175_2120" x1="10.5576" y1="89.6827" x2="110.188" y2="89.6827" gradientUnits="userSpaceOnUse">
<stop stop-color="#16B0E2"/>
<stop offset="1" stop-color="#6E5AF0"/>
</linearGradient>
<linearGradient id="paint1_linear_175_2120" x1="7.68727" y1="56.4519" x2="5.12477" y2="56.4519" gradientUnits="userSpaceOnUse">
<stop stop-color="#16B0E2"/>
<stop offset="1" stop-color="#6E5AF0"/>
</linearGradient>
<linearGradient id="paint2_linear_175_2120" x1="31.3906" y1="43.5625" x2="55.7344" y2="43.5625" gradientUnits="userSpaceOnUse">
<stop stop-color="#16B0E2"/>
<stop offset="1" stop-color="#6E5AF0"/>
</linearGradient>
<linearGradient id="paint3_linear_175_2120" x1="79.4372" y1="25.6252" x2="115.312" y2="25.6252" gradientUnits="userSpaceOnUse">
<stop stop-color="#16B0E2"/>
<stop offset="1" stop-color="#6E5AF0"/>
</linearGradient>
</defs>
</svg>
