<svg width="21" height="20" viewBox="0 0 21 20" fill="none" xmlns="http://www.w3.org/2000/svg">
<g clip-path="url(#clip0_534_1676)">
<path d="M10.5 20C16.0228 20 20.5 15.5228 20.5 10C20.5 4.47715 16.0228 0 10.5 0C4.97715 0 0.5 4.47715 0.5 10C0.5 15.5228 4.97715 20 10.5 20Z" fill="#F0F0F0"/>
<path d="M10.4999 0C6.53531 0 3.10969 2.30723 1.49219 5.65219H19.5076C17.8902 2.30723 14.4645 0 10.4999 0Z" fill="#FF9811"/>
<path d="M10.4999 20.0001C14.4645 20.0001 17.8902 17.6929 19.5077 14.3479H1.49219C3.10969 17.6929 6.53531 20.0001 10.4999 20.0001Z" fill="#6DA544"/>
<path d="M10.4997 13.4785C12.4207 13.4785 13.978 11.9212 13.978 10.0002C13.978 8.07923 12.4207 6.52197 10.4997 6.52197C8.57875 6.52197 7.02148 8.07923 7.02148 10.0002C7.02148 11.9212 8.57875 13.4785 10.4997 13.4785Z" fill="#0052B4"/>
<path d="M10.5001 12.174C11.7007 12.174 12.674 11.2007 12.674 10.0001C12.674 8.79946 11.7007 7.82617 10.5001 7.82617C9.29946 7.82617 8.32617 8.79946 8.32617 10.0001C8.32617 11.2007 9.29946 12.174 10.5001 12.174Z" fill="#F0F0F0"/>
<path d="M10.5009 7.31738L11.1716 8.8384L12.8241 8.65867L11.8422 9.99996L12.8241 11.3412L11.1716 11.1615L10.5009 12.6825L9.83023 11.1615L8.17773 11.3412L9.15961 9.99996L8.17773 8.65867L9.83023 8.8384L10.5009 7.31738Z" fill="#0052B4"/>
</g>
<defs>
<clipPath id="clip0_534_1676">
<rect width="20" height="20" fill="white" transform="translate(0.5)"/>
</clipPath>
</defs>
</svg>
