<svg width="14" height="20" viewBox="0 0 14 20" fill="none" xmlns="http://www.w3.org/2000/svg">
<path d="M7.15745 9.27926C6.52103 9.27926 5.91068 9.02644 5.46066 8.57642C5.01064 8.1264 4.75782 7.51605 4.75782 6.87962C4.75782 6.2432 5.01064 5.63284 5.46066 5.18282C5.91068 4.73281 6.52103 4.47999 7.15745 4.47999C7.79388 4.47999 8.40423 4.73281 8.85425 5.18282C9.30427 5.63284 9.55709 6.2432 9.55709 6.87962C9.55709 7.19475 9.49502 7.50679 9.37443 7.79792C9.25384 8.08906 9.07708 8.35359 8.85425 8.57642C8.63143 8.79925 8.36689 8.976 8.07576 9.0966C7.78462 9.21719 7.47258 9.27926 7.15745 9.27926ZM7.15745 0.160645C5.37547 0.160645 3.66647 0.868535 2.40642 2.12859C1.14637 3.38864 0.438477 5.09764 0.438477 6.87962C0.438477 11.9189 7.15745 19.3577 7.15745 19.3577C7.15745 19.3577 13.8764 11.9189 13.8764 6.87962C13.8764 5.09764 13.1685 3.38864 11.9085 2.12859C10.6484 0.868535 8.93944 0.160645 7.15745 0.160645Z" fill="#8DC63F"/>
</svg>
