<svg width="123" height="123" viewBox="0 0 123 123" fill="none" xmlns="http://www.w3.org/2000/svg">
<path fill-rule="evenodd" clip-rule="evenodd" d="M77.46 44.1962V32.5717C77.46 23.7938 70.2779 16.6115 61.4998 16.6115C52.7216 16.6115 45.5396 23.7935 45.5396 32.5717V44.1962H32.7716V32.5719C32.7716 16.7715 45.6993 3.84375 61.4998 3.84375C77.3002 3.84375 90.228 16.7715 90.228 32.5719V44.1962H77.46ZM106.033 60.1814V109.177C106.033 114.666 101.542 119.156 96.0534 119.156H26.9461C21.4575 119.156 16.9668 114.666 16.9668 109.177V60.1811C16.9668 54.6925 21.4575 50.2018 26.9461 50.2018H96.0534C101.542 50.2018 106.033 54.6927 106.033 60.1814ZM69.8921 77.0196C69.8921 72.3848 66.1348 68.6273 61.4998 68.6273C56.8647 68.6273 53.1074 72.3848 53.1074 77.0196C53.1074 79.8714 54.5303 82.3905 56.7042 83.9071V95.9359C56.7042 98.5737 58.862 100.731 61.4998 100.731C64.1375 100.731 66.2953 98.5734 66.2953 95.9359V83.9069C68.4694 82.3903 69.8921 79.8712 69.8921 77.0196Z" fill="url(#paint0_linear_175_2118)"/>
<defs>
<linearGradient id="paint0_linear_175_2118" x1="61.4998" y1="119.156" x2="61.4998" y2="3.84351" gradientUnits="userSpaceOnUse">
<stop stop-color="#1751FF"/>
<stop offset="1" stop-color="#17A0FF"/>
</linearGradient>
</defs>
</svg>
