<svg width="40" height="46" viewBox="0 0 40 46" fill="none" xmlns="http://www.w3.org/2000/svg">
<g id="Shield Done">
<path id="Shield Done_2" fill-rule="evenodd" clip-rule="evenodd" d="M19.3882 45.3057C19.6374 45.4359 19.916 45.5021 20.1946 45.4999C20.4732 45.4977 20.7496 45.4293 21.001 45.2969L29.0287 41.0055C31.3052 39.792 33.0879 38.4351 34.4787 36.8554C37.5027 33.4135 39.154 29.0206 39.1246 24.4909L39.0294 9.54946C39.0204 7.8285 37.89 6.29287 36.2184 5.73466L21.2842 0.724019C20.3849 0.419542 19.3995 0.426161 18.5161 0.739464L3.63855 5.92882C1.97592 6.5091 0.865994 8.05575 0.875055 9.77892L0.970192 24.7094C0.999639 29.2456 2.70757 33.6186 5.78139 37.0253C7.18579 38.583 8.98433 39.92 11.2857 41.1137L19.3882 45.3057ZM17.2636 27.7451C17.5988 28.0672 18.0337 28.2261 18.4686 28.2217C18.9036 28.2195 19.3362 28.0562 19.6669 27.7297L28.4399 19.0807C29.099 18.4298 29.0922 17.384 28.4263 16.742C27.7581 16.0999 26.6821 16.1043 26.0229 16.7552L18.4437 24.226L15.3405 21.243C14.6722 20.6009 13.5985 20.6075 12.9371 21.2584C12.278 21.9093 12.2848 22.9551 12.953 23.5971L17.2636 27.7451Z" fill="#69B99D"/>
</g>
</svg>
