<svg width="41" height="40" viewBox="0 0 41 40" fill="none" xmlns="http://www.w3.org/2000/svg">
<path d="M11.7832 21.6668V20.0002C11.7832 17.2425 9.55076 15.0063 6.79455 15.0002C6.80866 14.4535 6.8403 14.0565 6.9113 13.6996C7.43735 11.055 9.50466 8.98764 12.1493 8.46159C12.7933 8.3335 13.5677 8.3335 15.1165 8.3335H18.8665V21.6668H11.7832Z" fill="#338CFF"/>
<path d="M21.3665 21.6668H28.4499V20.0002C28.4499 17.2425 30.6823 15.0063 33.4385 15.0002C33.4244 14.4535 33.3928 14.0565 33.3218 13.6996C32.7957 11.055 30.7284 8.98764 28.0838 8.46159C27.4398 8.3335 26.6654 8.3335 25.1165 8.3335H21.3665V21.6668Z" fill="#338CFF"/>
<path d="M30.8566 29.9998H9.37515C8.91338 29.9998 8.46394 29.947 8.03255 29.8471V31.6665C8.03255 32.3569 7.47291 32.9165 6.78255 32.9165C6.0922 32.9165 5.53255 32.3569 5.53255 31.6665V28.5853C4.25768 27.4983 3.44922 25.8805 3.44922 24.0739V19.9998C3.44922 18.1589 4.9416 16.6665 6.78255 16.6665C8.6235 16.6665 10.1159 18.1589 10.1159 19.9998V21.9998C10.1159 22.7362 10.7128 23.3332 11.4492 23.3332H28.7826C29.5189 23.3332 30.1159 22.7362 30.1159 21.9998V19.9998C30.1159 18.1589 31.6083 16.6665 33.4492 16.6665C35.2902 16.6665 36.7826 18.1589 36.7826 19.9998V24.0739C36.7826 25.8805 35.9741 27.4983 34.6992 28.5853V31.6665C34.6992 32.3569 34.1396 32.9165 33.4492 32.9165C32.7589 32.9165 32.1992 32.3569 32.1992 31.6665V29.8471C31.7678 29.947 31.3184 29.9998 30.8566 29.9998Z" fill="#338CFF"/>
</svg>
