<svg width="84" height="20" viewBox="0 0 84 20" fill="none" xmlns="http://www.w3.org/2000/svg">
<g clip-path="url(#clip0_1252_1800)">
<path d="M15.4167 4.5835L4.58343 15.4166" stroke="white" stroke-width="1.5" stroke-linecap="round"/>
<circle cx="10.0001" cy="9.99984" r="8.33333" stroke="white" stroke-width="1.5"/>
</g>
<path d="M34.5376 7.61719C34.4912 7.183 34.2957 6.84493 33.951 6.60298C33.6096 6.36103 33.1655 6.24006 32.6186 6.24006C32.2341 6.24006 31.9044 6.29806 31.6293 6.41406C31.3542 6.53007 31.1437 6.6875 30.9979 6.88636C30.852 7.08523 30.7775 7.31226 30.7741 7.56747C30.7741 7.77959 30.8222 7.96354 30.9183 8.11932C31.0178 8.27509 31.152 8.40767 31.321 8.51705C31.4901 8.62311 31.6773 8.71259 31.8828 8.78551C32.0883 8.85843 32.2955 8.91974 32.5043 8.96946L33.4588 9.2081C33.8433 9.29758 34.2128 9.41856 34.5675 9.57102C34.9254 9.72348 35.2453 9.91572 35.527 10.1477C35.812 10.3797 36.0374 10.6598 36.2031 10.9879C36.3688 11.3161 36.4517 11.7005 36.4517 12.1413C36.4517 12.7379 36.2992 13.2633 35.9943 13.7173C35.6894 14.1681 35.2486 14.5211 34.6719 14.7763C34.0985 15.0282 33.4041 15.1541 32.5888 15.1541C31.7966 15.1541 31.1089 15.0315 30.5256 14.7862C29.9455 14.541 29.4915 14.183 29.1634 13.7124C28.8385 13.2417 28.6629 12.6683 28.6364 11.9922H30.451C30.4775 12.3468 30.5869 12.6418 30.7791 12.8771C30.9714 13.1125 31.2216 13.2881 31.5298 13.4041C31.8414 13.5201 32.1894 13.5781 32.5739 13.5781C32.9749 13.5781 33.3262 13.5185 33.6278 13.3991C33.9328 13.2765 34.1714 13.1075 34.3438 12.892C34.5161 12.6733 34.6039 12.4181 34.6072 12.1264C34.6039 11.8613 34.526 11.6425 34.3736 11.4702C34.2211 11.2945 34.0073 11.1487 33.7322 11.0327C33.4605 10.9134 33.1423 10.8073 32.7777 10.7145L31.6193 10.4162C30.7808 10.2008 30.1179 9.87429 29.6307 9.43679C29.1468 8.99598 28.9048 8.41098 28.9048 7.68182C28.9048 7.08191 29.0672 6.55658 29.392 6.10582C29.7202 5.65507 30.166 5.3054 30.7294 5.05682C31.2929 4.80492 31.9309 4.67898 32.6435 4.67898C33.366 4.67898 33.9991 4.80492 34.5426 5.05682C35.0895 5.3054 35.5187 5.65175 35.8303 6.09588C36.1418 6.53669 36.3026 7.0438 36.3125 7.61719H34.5376ZM41.3475 15.1491C40.6017 15.1491 39.9554 14.9851 39.4086 14.657C38.8617 14.3288 38.4374 13.8698 38.1358 13.2798C37.8375 12.6899 37.6884 12.0005 37.6884 11.2116C37.6884 10.4228 37.8375 9.73177 38.1358 9.13849C38.4374 8.54522 38.8617 8.08452 39.4086 7.75639C39.9554 7.42827 40.6017 7.2642 41.3475 7.2642C42.0932 7.2642 42.7395 7.42827 43.2864 7.75639C43.8333 8.08452 44.2559 8.54522 44.5542 9.13849C44.8558 9.73177 45.0066 10.4228 45.0066 11.2116C45.0066 12.0005 44.8558 12.6899 44.5542 13.2798C44.2559 13.8698 43.8333 14.3288 43.2864 14.657C42.7395 14.9851 42.0932 15.1491 41.3475 15.1491ZM41.3574 13.7074C41.7618 13.7074 42.0998 13.5964 42.3716 13.3743C42.6434 13.1489 42.8456 12.8473 42.9782 12.4695C43.1141 12.0916 43.182 11.6707 43.182 11.2067C43.182 10.7393 43.1141 10.3168 42.9782 9.93892C42.8456 9.55777 42.6434 9.2545 42.3716 9.02912C42.0998 8.80374 41.7618 8.69105 41.3574 8.69105C40.9431 8.69105 40.5984 8.80374 40.3233 9.02912C40.0516 9.2545 39.8477 9.55777 39.7118 9.93892C39.5792 10.3168 39.513 10.7393 39.513 11.2067C39.513 11.6707 39.5792 12.0916 39.7118 12.4695C39.8477 12.8473 40.0516 13.1489 40.3233 13.3743C40.5984 13.5964 40.9431 13.7074 41.3574 13.7074ZM48.3338 4.81818V15H46.5341V4.81818H48.3338ZM53.0183 15.1342C52.4184 15.1342 51.8815 14.9801 51.4075 14.6719C50.9335 14.3636 50.559 13.9162 50.2839 13.3295C50.0088 12.7429 49.8713 12.0303 49.8713 11.1918C49.8713 10.3433 50.0105 9.62737 50.2889 9.04403C50.5706 8.45739 50.9501 8.01491 51.4274 7.71662C51.9047 7.41501 52.4366 7.2642 53.0233 7.2642C53.4707 7.2642 53.8386 7.34044 54.127 7.4929C54.4153 7.64205 54.644 7.82268 54.813 8.0348C54.9821 8.24361 55.113 8.44081 55.2058 8.62642H55.2804V4.81818H57.085V15H55.3152V13.7969H55.2058C55.113 13.9825 54.9788 14.1797 54.8031 14.3885C54.6274 14.594 54.3954 14.7696 54.1071 14.9155C53.8187 15.0613 53.4558 15.1342 53.0183 15.1342ZM53.5204 13.6577C53.9016 13.6577 54.2264 13.5549 54.4949 13.3494C54.7633 13.1406 54.9672 12.8506 55.1064 12.4794C55.2456 12.1082 55.3152 11.6757 55.3152 11.1818C55.3152 10.688 55.2456 10.2588 55.1064 9.89418C54.9705 9.52959 54.7683 9.24621 54.4998 9.04403C54.2347 8.84186 53.9082 8.74077 53.5204 8.74077C53.1194 8.74077 52.7846 8.84517 52.5162 9.05398C52.2477 9.26278 52.0455 9.55114 51.9096 9.91903C51.7737 10.2869 51.7058 10.7079 51.7058 11.1818C51.7058 11.6591 51.7737 12.085 51.9096 12.4595C52.0488 12.8307 52.2527 13.1241 52.5211 13.3395C52.7929 13.5516 53.126 13.6577 53.5204 13.6577ZM65.8065 15.1491C65.0607 15.1491 64.4144 14.9851 63.8675 14.657C63.3207 14.3288 62.8964 13.8698 62.5948 13.2798C62.2965 12.6899 62.1474 12.0005 62.1474 11.2116C62.1474 10.4228 62.2965 9.73177 62.5948 9.13849C62.8964 8.54522 63.3207 8.08452 63.8675 7.75639C64.4144 7.42827 65.0607 7.2642 65.8065 7.2642C66.5522 7.2642 67.1985 7.42827 67.7454 7.75639C68.2923 8.08452 68.7148 8.54522 69.0131 9.13849C69.3147 9.73177 69.4656 10.4228 69.4656 11.2116C69.4656 12.0005 69.3147 12.6899 69.0131 13.2798C68.7148 13.8698 68.2923 14.3288 67.7454 14.657C67.1985 14.9851 66.5522 15.1491 65.8065 15.1491ZM65.8164 13.7074C66.2208 13.7074 66.5588 13.5964 66.8306 13.3743C67.1024 13.1489 67.3046 12.8473 67.4371 12.4695C67.573 12.0916 67.641 11.6707 67.641 11.2067C67.641 10.7393 67.573 10.3168 67.4371 9.93892C67.3046 9.55777 67.1024 9.2545 66.8306 9.02912C66.5588 8.80374 66.2208 8.69105 65.8164 8.69105C65.4021 8.69105 65.0574 8.80374 64.7823 9.02912C64.5105 9.2545 64.3067 9.55777 64.1708 9.93892C64.0382 10.3168 63.9719 10.7393 63.9719 11.2067C63.9719 11.6707 64.0382 12.0916 64.1708 12.4695C64.3067 12.8473 64.5105 13.1489 64.7823 13.3743C65.0574 13.5964 65.4021 13.7074 65.8164 13.7074ZM75.8603 11.7884V7.36364H77.66V15H75.915V13.6428H75.8354C75.6631 14.0703 75.3797 14.42 74.9853 14.6918C74.5942 14.9635 74.1119 15.0994 73.5385 15.0994C73.0381 15.0994 72.5956 14.9884 72.2111 14.7663C71.83 14.541 71.5317 14.2145 71.3162 13.7869C71.1008 13.3561 70.9931 12.8357 70.9931 12.2259V7.36364H72.7928V11.9474C72.7928 12.4313 72.9254 12.8158 73.1905 13.1009C73.4557 13.3859 73.8037 13.5284 74.2346 13.5284C74.4997 13.5284 74.7566 13.4638 75.0051 13.3345C75.2537 13.2053 75.4576 13.013 75.6167 12.7578C75.7791 12.4993 75.8603 12.1761 75.8603 11.7884ZM83.3239 7.36364V8.75568H78.9339V7.36364H83.3239ZM80.0178 5.53409H81.8175V12.7031C81.8175 12.9451 81.8539 13.1307 81.9268 13.2599C82.0031 13.3859 82.1025 13.4721 82.2251 13.5185C82.3478 13.5649 82.4837 13.5881 82.6328 13.5881C82.7455 13.5881 82.8482 13.5798 82.9411 13.5632C83.0372 13.5466 83.1101 13.5317 83.1598 13.5185L83.4631 14.9254C83.367 14.9586 83.2294 14.995 83.0504 15.0348C82.8748 15.0746 82.6593 15.0978 82.4041 15.1044C81.9534 15.1177 81.5473 15.0497 81.1861 14.9006C80.8248 14.7481 80.5381 14.5128 80.326 14.1946C80.1172 13.8764 80.0144 13.4787 80.0178 13.0014V5.53409Z" fill="white"/>
<defs>
<clipPath id="clip0_1252_1800">
<rect width="20" height="20" fill="white"/>
</clipPath>
</defs>
</svg>
