<svg width="78" height="78" viewBox="0 0 78 78" fill="none" xmlns="http://www.w3.org/2000/svg">
<path d="M35.2031 10.8777H42.7969V20.7049H35.2031V10.8777Z" fill="#555A66"/>
<path d="M38.9727 10.8779H42.7972V20.7052H38.9727V10.8779Z" fill="#333940"/>
<path d="M15.6387 20.3862L21.0074 15.0175L27.9553 21.9653L22.5865 27.3341L15.6387 20.3862Z" fill="#555A66"/>
<path d="M55.4121 27.3425L50.0433 21.9738L56.9912 15.0259L62.36 20.3947L55.4121 27.3425Z" fill="#333940"/>
<path d="M38.9995 68.5918C53.2648 68.5918 64.8291 57.0275 64.8291 42.7622C64.8291 28.4969 53.2648 16.9326 38.9995 16.9326C24.7342 16.9326 13.1699 28.4969 13.1699 42.7622C13.1699 57.0275 24.7342 68.5918 38.9995 68.5918Z" fill="#FFCE00"/>
<path d="M39.0004 16.9326C38.9911 16.9326 38.9819 16.9329 38.9727 16.9329V68.5913C38.9819 68.5913 38.9911 68.5916 39.0004 68.5916C53.2657 68.5916 64.83 57.0274 64.83 42.762C64.83 28.4967 53.2657 16.9326 39.0004 16.9326Z" fill="#FFA300"/>
<path d="M39.0009 62.3939C49.8432 62.3939 58.6327 53.6045 58.6327 42.7621C58.6327 31.9198 49.8432 23.1304 39.0009 23.1304C28.1586 23.1304 19.3691 31.9198 19.3691 42.7621C19.3691 53.6045 28.1586 62.3939 39.0009 62.3939Z" fill="white"/>
<path d="M39.0004 23.1304C38.9911 23.1304 38.9819 23.1307 38.9727 23.1307V62.3935C38.9819 62.3935 38.9911 62.3938 39.0004 62.3938C49.8427 62.3938 58.6322 53.6043 58.6322 42.762C58.6322 31.9197 49.8427 23.1304 39.0004 23.1304Z" fill="#E9EDF5"/>
<path d="M32.7463 8.01367H45.2536V14.1537H32.7463V8.01367Z" fill="#707789"/>
<path d="M38.9727 8.01367H45.2541V14.1537H38.9727V8.01367Z" fill="#555A66"/>
<path d="M37.377 41.1458L48.1477 30.375L51.3789 33.6063L40.6082 44.377L37.377 41.1458Z" fill="#333940"/>
<path d="M39.0007 46.7646C41.2113 46.7646 43.0034 44.9726 43.0034 42.762C43.0034 40.5513 41.2113 38.7593 39.0007 38.7593C36.7901 38.7593 34.998 40.5513 34.998 42.762C34.998 44.9726 36.7901 46.7646 39.0007 46.7646Z" fill="#707789"/>
<path d="M39.0004 38.7593C38.9911 38.7593 38.9819 38.7599 38.9727 38.76V46.764C38.9819 46.764 38.9911 46.7648 39.0004 46.7648C41.211 46.7648 43.0031 44.9728 43.0031 42.7621C43.0031 40.5514 41.211 38.7593 39.0004 38.7593Z" fill="#555A66"/>
</svg>
