<svg width="115" height="116" viewBox="0 0 115 116" fill="none" xmlns="http://www.w3.org/2000/svg">
<path d="M44.4643 71.0354L36.4975 59.6801L24.4553 51.0264C23.5274 53.4725 22.7302 55.5742 21.8025 58.0203L29.3678 68.6236L39.641 75.8588L44.4641 75.3312L44.4643 71.0354Z" fill="#FC6DAE"/>
<path d="M29.9942 85.5057L25.1708 77.8703L16.4968 72.0083C15.5691 74.4544 14.7719 76.5561 13.844 79.0022L18.249 86.435L25.1708 90.329H28.989L29.9942 85.5057Z" fill="#FC6DAE"/>
<path d="M39.6406 75.859L47.0272 86.0562L57.4791 93.6973C59.9252 92.7696 62.0269 91.9724 64.473 91.0444L55.6676 79.9927L44.464 71.0356C42.7768 72.7226 41.3275 74.1721 39.6406 75.859Z" fill="#F73D7F"/>
<path d="M25.1699 90.3292L29.2914 96.8945L36.4968 101.656C38.9429 100.728 41.0445 99.9309 43.4907 99.0032L37.7044 91.0446L29.9933 85.5059C28.3064 87.1928 26.8568 88.6423 25.1699 90.3292Z" fill="#F73D7F"/>
<path d="M51.699 63.8002L42.0523 51.0264L28.4344 40.5352C27.17 43.8685 25.7195 47.6928 24.4551 51.0264C26.8757 53.4468 42.0275 68.5988 44.4641 71.0354L49.5285 69.1543L51.699 63.8002Z" fill="#FFD92E"/>
<path d="M44.4648 71.0357C46.8853 73.4562 62.0373 88.6082 64.4739 91.0447C67.8072 89.7803 71.6313 88.3299 74.9646 87.0654L64.4739 73.8538L51.7 63.8008C49.3999 66.1007 46.7645 68.7358 44.4648 71.0357Z" fill="#FCBE00"/>
<path d="M49.288 51.7419H44.4648V46.9186C47.9201 43.4636 52.1623 39.2214 54.1116 37.2716C57.9766 33.4066 60.1055 28.2677 60.1055 22.8013C60.1055 17.3353 57.9768 12.1964 54.1116 8.33118C55.7985 6.64426 57.248 5.19473 58.9349 3.50781C69.5558 14.1284 69.6417 31.3882 58.9349 42.0952L52.9056 48.1244L49.288 51.7419Z" fill="#C6EA4B"/>
<path d="M68.5812 71.0357H63.7578V66.2123C67.1019 62.8683 70.063 59.9072 73.4048 56.5654C78.5581 51.4121 85.4099 48.5737 92.6982 48.5737C99.9862 48.5737 106.838 51.4116 111.992 56.5654C110.305 58.2523 108.855 59.7018 107.169 61.3888C103.179 57.3994 97.9386 55.4046 92.6982 55.4046C87.4579 55.4046 82.2177 57.3994 78.2281 61.3888C74.8889 64.7278 71.9298 67.6871 68.5812 71.0357Z" fill="#55C8FF"/>
<path d="M33.2324 10.6426H40.0538V17.4639H33.2324V10.6426Z" fill="#84DFFF"/>
<path d="M40.0547 24.2852H46.876V31.1065H40.0547V24.2852Z" fill="#84DFFF"/>
<path d="M87.8047 65.2129H94.626V72.0342H87.8047V65.2129Z" fill="#92E200"/>
<path d="M101.446 85.6773C99.0607 85.6773 97.0109 85.6773 94.625 85.6773C94.625 83.2916 94.625 78.856 94.625 78.856H101.446V85.6773Z" fill="#92E200"/>
<path d="M101.447 31.1064H108.269V37.9278H101.447V31.1064Z" fill="#55C8FF"/>
<path d="M74.1621 3.82129H80.9834V10.6426H74.1621V3.82129Z" fill="#C6EA4B"/>
<path d="M88.3033 27.1973L95.5355 22.3524L101.064 14.4367C101.575 11.7304 103.524 9.79794 106.209 9.29179L111.338 6.54962L112.589 2.91157C111.745 2.06823 111.021 1.34357 110.177 0.5C106.897 3.78015 103.253 0.992728 98.0089 6.23697C93.8115 10.4341 94.5848 14.2141 93.6344 16.4819C93.0896 17.7825 91.6503 19.2218 90.349 19.7673C88.7251 20.4481 86.4601 20.2371 83.7348 21.5293C81.1438 22.7578 78.7186 25.1821 77.4896 27.7744C75.6165 31.7251 77.0137 33.6631 74.3652 36.312C75.2086 37.1556 75.9335 37.8802 76.7768 38.7236L79.9671 37.473L83.1575 32.3431C83.6704 29.6235 85.5875 27.7096 88.3033 27.1973Z" fill="#FC6DAE"/>
<path d="M56.5235 58.9774C55.8062 58.26 31.8057 34.2596 31.0884 33.542C30.1604 35.9879 29.3632 38.0898 28.4355 40.5357C29.7286 41.8286 50.4073 62.5077 51.7002 63.8005L56.1447 63.4217L56.5235 58.9774Z" fill="#FCBE00"/>
<path d="M13.8439 79.0024C13.4533 80.0322 0.39018 114.471 0 115.5L13.8439 104.777L25.1707 90.3295C23.8012 88.9598 15.2223 80.381 13.8439 79.0024Z" fill="#FFD92E"/>
<path d="M39.6404 75.859C37.6297 73.8483 23.9207 60.1394 21.802 58.0205C20.3597 61.8225 17.3388 69.7869 16.4961 72.0086C18.1362 73.6489 28.3484 83.8609 29.9935 85.5059L36.4969 82.2665L39.6404 75.859Z" fill="#FFD92E"/>
<path d="M97.095 23.2281C99.9804 20.3427 100.362 18.1507 101.063 14.4365C96.6002 18.8993 92.7655 22.7342 88.3027 27.1972C91.8014 26.5371 94.1136 26.2097 97.095 23.2281Z" fill="#F73D7F"/>
<path d="M114.999 5.32319C114.155 4.47985 113.43 3.75519 112.587 2.91162C110.356 5.14288 108.438 7.06036 106.207 9.29184C108.529 8.85346 111.613 8.70839 114.999 5.32319Z" fill="#F73D7F"/>
<path d="M83.1561 32.3428C80.9244 34.5743 79.0071 36.492 76.7754 38.7232C77.6187 39.5668 78.3436 40.2914 79.187 41.135C82.4594 37.8626 82.659 34.9763 83.1561 32.3428Z" fill="#F73D7F"/>
<path d="M74.9641 87.065C77.4102 86.1373 79.5119 85.3402 81.958 84.4122C81.2406 83.6948 57.2404 59.6944 56.5228 58.9771C54.8359 60.664 53.3866 62.1135 51.6995 63.8004C52.9926 65.0933 73.6712 85.7722 74.9641 87.065Z" fill="#FF9000"/>
<path d="M25.1707 90.3291C23.7744 91.7257 1.39656 114.103 0 115.5C1.02979 115.109 35.4687 102.046 36.4976 101.656C35.1281 100.286 26.5491 91.7075 25.1707 90.3291Z" fill="#FCBE00"/>
<path d="M29.9941 85.5058C31.6342 87.1459 41.8464 97.3581 43.4915 99.0032C47.2937 97.561 55.2581 94.54 57.4796 93.6974C55.4689 91.6867 41.76 77.9778 39.6411 75.8589C38.4737 77.0262 31.169 84.331 29.9941 85.5058Z" fill="#FCBE00"/>
</svg>
